<svg width="292" height="188" viewBox="0 0 292 188" fill="none" xmlns="http://www.w3.org/2000/svg">
<path d="M80.0337 53.6677C86.9111 53.6677 92.4864 48.1213 92.4864 41.2794C92.4864 34.4375 86.9111 28.891 80.0337 28.891C73.1563 28.891 67.5811 34.4375 67.5811 41.2794C67.5811 48.1213 73.1563 53.6677 80.0337 53.6677Z" fill="white"/>
<path d="M80.034 53.9815C77.5085 53.9828 75.0393 53.2388 72.9388 51.8439C70.8382 50.4489 69.2007 48.4655 68.2334 46.1446C67.266 43.8237 67.0123 41.2696 67.5042 38.8052C67.9962 36.3408 69.2117 34.0769 70.9971 32.2999C72.7825 30.5228 75.0575 29.3124 77.5345 28.8218C80.0114 28.3312 82.579 28.5824 84.9124 29.5436C87.2458 30.5048 89.2403 32.1328 90.6435 34.2218C92.0468 36.3108 92.7958 38.7669 92.7958 41.2794C92.7924 44.6461 91.447 47.8741 89.0547 50.2553C86.6623 52.6365 83.4182 53.9765 80.034 53.9815ZM80.034 29.2111C77.633 29.2099 75.2855 29.9171 73.2886 31.2434C71.2917 32.5697 69.735 34.4555 68.8156 36.662C67.8962 38.8686 67.6553 41.2969 68.1234 43.6398C68.5915 45.9826 69.7476 48.1346 71.4454 49.8237C73.1432 51.5127 75.3064 52.6628 77.6614 53.1285C80.0164 53.5942 82.4573 53.3546 84.6754 52.4399C86.8934 51.5252 88.7889 49.9766 90.1221 47.99C91.4553 46.0034 92.1662 43.6681 92.165 41.2794C92.1599 38.0802 90.8803 35.0135 88.6064 32.7513C86.3325 30.4892 83.2498 29.2161 80.034 29.2111Z" fill="#ACCCF8"/>
<path d="M167.24 66.9222L208.503 81.3L186.834 86.8289L161.449 74.3465L167.24 66.9222Z" fill="#093269"/>
<path d="M186.853 87.105C186.813 87.1144 186.772 87.1144 186.733 87.105L161.348 74.6226C161.31 74.6042 161.277 74.5778 161.251 74.5453C161.225 74.5127 161.206 74.4748 161.197 74.4343C161.188 74.3943 161.187 74.3527 161.196 74.3126C161.205 74.2725 161.222 74.2348 161.247 74.2021L167.019 66.7465C167.056 66.7008 167.106 66.6674 167.162 66.6506C167.219 66.6338 167.279 66.6344 167.335 66.6523L208.597 81.0301C208.654 81.0503 208.702 81.0881 208.735 81.1379C208.768 81.1877 208.784 81.2467 208.78 81.3062C208.778 81.3649 208.756 81.4212 208.719 81.4665C208.681 81.5118 208.63 81.5437 208.572 81.5573L186.903 87.0925L186.853 87.105ZM161.878 74.2774L186.853 86.5339L207.531 81.256L167.341 67.2485L161.878 74.2774Z" fill="#093269"/>
<path d="M118.9 114.756C118.9 114.756 97.0224 121.352 86.1279 114.756C86.1279 114.756 94.4549 125.098 105.785 123.944C117.114 122.789 118.9 114.756 118.9 114.756Z" fill="#ACCCF8"/>
<path d="M126.526 109.039C126.526 109.039 109.853 125.111 90.9219 120.881C64.6351 115.045 44.3853 83.9482 61.9856 44.9444C61.9856 44.9444 43.6914 71.3779 53.1539 100.861C66.1239 141.221 97.451 139.551 129.346 131.311" fill="#ACCCF8"/>
<path d="M171.858 36.4283C171.858 36.4283 167.095 57.998 167.24 66.9221C167.24 67.3614 168.66 68.4597 168.691 68.8049C169.379 76.7688 143.559 70.06 143.559 70.06C143.559 70.06 142.6 53.172 144.524 47.1284C146.448 41.0849 148.511 39.7607 148.511 39.7607C148.511 39.7607 165.783 33.008 168.817 33.9556C171.852 34.9032 171.858 36.4283 171.858 36.4283Z" fill="#1264D1"/>
<path d="M162.591 45.6349L195.438 28.4958L192.82 20.0988L157.696 37.809L162.591 45.6349Z" fill="#1264D1"/>
<path d="M115.777 115.001C115.777 115.001 115.291 118.496 118.105 125.519C120.918 132.541 123.688 134.738 123.688 134.738L133.693 133.483L123.883 109.007L115.777 115.001Z" fill="#093269"/>
<path d="M123.687 135.014C123.626 135.015 123.566 134.995 123.517 134.958C123.404 134.863 120.653 132.629 117.84 125.619C115.026 118.609 115.474 115.107 115.493 114.951C115.498 114.914 115.511 114.879 115.531 114.848C115.55 114.817 115.576 114.79 115.606 114.769L123.713 108.807C123.746 108.781 123.786 108.764 123.827 108.756C123.869 108.749 123.912 108.751 123.952 108.763C123.994 108.773 124.032 108.793 124.064 108.822C124.096 108.85 124.12 108.886 124.135 108.926L133.945 133.401C133.963 133.439 133.973 133.481 133.973 133.524C133.973 133.566 133.963 133.608 133.945 133.646C133.923 133.682 133.894 133.712 133.859 133.735C133.824 133.758 133.784 133.772 133.743 133.778L123.738 135.002L123.687 135.014ZM116.042 115.151C115.991 115.779 115.884 119.243 118.363 125.412C120.842 131.581 123.296 134.016 123.776 134.449L133.301 133.288L123.769 109.472L116.042 115.151Z" fill="#093269"/>
<path d="M165.568 131.312C165.568 131.312 162.78 139.301 153.86 146.794C144.94 154.287 122.476 158.718 122.476 158.718L134.79 133.106L165.568 131.312Z" fill="white"/>
<path d="M122.508 159C122.46 159 122.413 158.99 122.371 158.969C122.328 158.948 122.291 158.918 122.262 158.881C122.225 158.834 122.202 158.778 122.196 158.72C122.189 158.661 122.199 158.602 122.224 158.548L134.494 132.943C134.518 132.893 134.556 132.85 134.602 132.82C134.649 132.789 134.703 132.771 134.759 132.767L165.537 130.998C165.589 130.993 165.642 131.003 165.689 131.025C165.737 131.047 165.778 131.081 165.808 131.123C165.839 131.164 165.86 131.211 165.869 131.261C165.877 131.312 165.874 131.363 165.859 131.412C165.827 131.493 162.938 139.57 154.049 147.032C145.161 154.494 122.754 158.956 122.508 159ZM135.03 133.376L123.044 158.253C126.722 157.475 145.754 153.233 153.665 146.549C161.235 140.198 164.389 133.42 165.102 131.644L135.03 133.376Z" fill="#093269"/>
<path d="M148.536 88.8183C148.536 88.8183 141.004 86.1574 129.346 86.8289C117.688 87.5004 98.3282 98.4516 98.3282 98.4516L124.981 108.606L148.536 88.8183Z" fill="white"/>
<path d="M124.981 108.919C124.943 108.925 124.905 108.925 124.867 108.919L98.2143 98.7527C98.1592 98.7302 98.1113 98.6932 98.0757 98.6457C98.0402 98.5981 98.0183 98.5418 98.0124 98.4829C98.0081 98.4239 98.0206 98.3649 98.0485 98.3128C98.0764 98.2606 98.1186 98.2173 98.1701 98.1879C98.3657 98.0749 117.726 87.1865 129.327 86.5213C140.928 85.856 148.567 88.4981 148.637 88.5232C148.69 88.541 148.738 88.5726 148.775 88.6148C148.812 88.6571 148.837 88.7084 148.847 88.7635C148.857 88.8186 148.853 88.8754 148.833 88.9281C148.814 88.9807 148.781 89.0273 148.738 89.0629L125.182 108.85C125.124 108.894 125.053 108.918 124.981 108.919ZM99.0722 98.4013L124.936 108.242L147.911 88.9437C146.019 88.3726 139.08 86.5777 129.384 87.1426C119.038 87.7388 102.397 96.5813 99.0722 98.4013Z" fill="#093269"/>
<path d="M118.918 106.579C128.715 97.027 144.518 87.1929 163.474 79.6683C192.202 68.2715 213.48 78.1056 220.527 82.2476C221.293 82.698 221.887 83.3881 222.217 84.2102C222.547 85.0323 222.594 85.9399 222.35 86.7913C220.104 94.6234 211.462 116.319 182.734 127.715C163.777 135.246 145.514 138.924 131.8 138.698C131.8 138.698 127.384 134.813 122.886 123.636C118.389 112.459 118.918 106.579 118.918 106.579Z" fill="white"/>
<path d="M132.979 139.024H131.793C131.717 139.025 131.643 138.998 131.585 138.949C131.402 138.786 127.056 134.882 122.596 123.749C118.136 112.616 118.584 106.805 118.603 106.56C118.611 106.486 118.644 106.417 118.697 106.365C128.866 96.4497 145.142 86.6156 163.36 79.3796C191.88 68.0833 212.95 77.4279 220.69 81.9778C221.515 82.4638 222.154 83.2075 222.509 84.093C222.864 84.9785 222.914 85.9559 222.652 86.8729C220.186 95.4769 211.373 116.695 182.853 128.01C165.139 135.039 147.053 139.024 132.979 139.024ZM131.926 138.397C146.044 138.585 164.534 134.631 182.62 127.433C210.881 116.218 219.605 95.2196 222.047 86.7097C222.27 85.9255 222.227 85.0899 221.923 84.3329C221.62 83.5759 221.073 82.9398 220.369 82.5238C212.71 78.024 191.849 68.7548 163.594 79.9695C145.508 87.1427 129.346 96.9141 119.227 106.723C119.189 107.583 119.114 113.363 123.183 123.511C127.251 133.659 131.301 137.788 131.926 138.391V138.397Z" fill="#093269"/>
<path d="M222.35 86.7912C219.406 96.4741 214.05 105.26 206.781 112.334C206.781 112.334 200.655 108.166 195.331 94.8744C190.007 81.5823 191.546 74.3715 191.546 74.3715C201.714 74.5232 211.677 77.2327 220.508 82.2476C221.277 82.6951 221.876 83.3841 222.209 84.2064C222.542 85.0287 222.592 85.9378 222.35 86.7912Z" fill="white"/>
<path d="M206.781 112.647C206.718 112.646 206.656 112.627 206.604 112.591C206.352 112.415 200.34 108.198 195.035 95.0187C189.73 81.8396 191.193 74.6288 191.25 74.3087C191.266 74.2384 191.305 74.1753 191.361 74.1298C191.417 74.0842 191.487 74.0588 191.559 74.0577C201.783 74.2002 211.803 76.9255 220.678 81.9777C221.503 82.4637 222.142 83.2075 222.497 84.093C222.852 84.9784 222.902 85.9559 222.64 86.8728C219.709 96.6106 214.342 105.449 207.04 112.559C207.006 112.592 206.965 112.617 206.92 112.632C206.876 112.647 206.828 112.652 206.781 112.647ZM191.83 74.6916C191.628 76.0785 190.947 83.0948 195.615 94.774C200.283 106.453 205.639 111.091 206.75 111.932C213.892 104.936 219.151 96.2642 222.041 86.7159C222.264 85.9318 222.221 85.0962 221.917 84.3391C221.614 83.5821 221.067 82.9461 220.363 82.53C211.665 77.5731 201.852 74.8772 191.83 74.6916Z" fill="#093269"/>
<path d="M123.303 105.236C123.257 105.235 123.213 105.226 123.171 105.207C123.13 105.189 123.093 105.162 123.063 105.129C123.036 105.098 123.015 105.062 123.002 105.023C122.99 104.984 122.985 104.942 122.988 104.901C122.992 104.86 123.004 104.821 123.023 104.784C123.042 104.748 123.069 104.716 123.101 104.69C130.191 98.9192 137.627 93.5833 145.369 88.7116C145.441 88.6689 145.526 88.6556 145.607 88.6743C145.688 88.693 145.759 88.7424 145.804 88.812C145.826 88.8465 145.841 88.885 145.848 88.9252C145.855 88.9655 145.853 89.0067 145.844 89.0464C145.834 89.0861 145.817 89.1236 145.793 89.1566C145.769 89.1896 145.738 89.2175 145.703 89.2387C137.99 94.0963 130.577 99.411 123.504 105.154C123.449 105.205 123.378 105.234 123.303 105.236Z" fill="white"/>
<path d="M147.502 137.844C147.422 137.845 147.346 137.816 147.287 137.763C147.199 137.681 138.676 129.604 134.443 119.036C130.211 108.468 130.804 96.7696 130.81 96.6566C130.811 96.6146 130.82 96.5731 130.837 96.5348C130.855 96.4965 130.88 96.4622 130.911 96.4339C130.943 96.4057 130.98 96.3842 131.02 96.3706C131.06 96.3571 131.102 96.3519 131.144 96.3554C131.227 96.3618 131.305 96.4001 131.36 96.4621C131.415 96.5242 131.444 96.6051 131.441 96.688C131.441 96.801 130.854 108.38 135.03 118.804C139.206 129.228 147.647 137.223 147.722 137.305C147.752 137.334 147.775 137.369 147.791 137.407C147.808 137.445 147.816 137.486 147.816 137.527C147.816 137.569 147.808 137.61 147.791 137.648C147.775 137.686 147.752 137.721 147.722 137.75C147.664 137.809 147.585 137.843 147.502 137.844Z" fill="#093269"/>
<path d="M219.656 81.4694C219.656 81.4694 231.781 78.3315 232.5 80.1264C233.219 81.9212 222.255 87.9459 222.255 87.9459" fill="#093269"/>
<path d="M222.255 88.2221C222.195 88.2205 222.137 88.1994 222.09 88.162C222.042 88.1245 222.009 88.0728 221.994 88.0146C221.979 87.9564 221.983 87.8949 222.007 87.8395C222.03 87.7841 222.071 87.7377 222.123 87.7075C227.296 84.8583 232.639 81.1933 232.216 80.2268C231.794 79.2603 225.416 80.2582 219.701 81.7393C219.665 81.7483 219.628 81.7503 219.591 81.7451C219.555 81.7399 219.52 81.7277 219.488 81.709C219.457 81.6904 219.429 81.6657 219.407 81.6364C219.385 81.6072 219.369 81.5739 219.36 81.5384C219.351 81.503 219.349 81.4661 219.354 81.4299C219.359 81.3937 219.372 81.3589 219.39 81.3274C219.409 81.2959 219.434 81.2684 219.463 81.2465C219.493 81.2246 219.526 81.2086 219.562 81.1995C222.464 80.4527 231.983 78.1558 232.734 80.026C233.484 81.8961 224.987 86.7473 222.363 88.1845C222.329 88.2029 222.293 88.2156 222.255 88.2221Z" fill="#093269"/>
<path d="M220.735 89.0819C219.075 86.94 218.048 84.3798 217.77 81.689C217.753 81.2654 217.896 80.8507 218.172 80.5274C218.448 80.2042 218.836 79.996 219.259 79.9444C219.439 79.9032 219.626 79.899 219.809 79.9318C219.991 79.9646 220.164 80.0339 220.319 80.1354C220.473 80.2369 220.606 80.3685 220.708 80.5223C220.809 80.6761 220.879 80.8488 220.912 81.0301C221.147 83.3472 222.022 85.5542 223.441 87.4062C223.544 87.5596 223.615 87.7323 223.648 87.9136C223.682 88.095 223.678 88.2813 223.636 88.461C223.595 88.6408 223.517 88.8103 223.408 88.9591C223.298 89.108 223.16 89.233 223 89.3266C222.66 89.5739 222.239 89.686 221.82 89.6407C221.401 89.5954 221.014 89.3961 220.735 89.0819Z" fill="white"/>
<path d="M221.99 89.9668C221.701 89.9717 221.415 89.911 221.154 89.7892C220.893 89.6673 220.663 89.4877 220.482 89.2639C218.795 87.079 217.747 84.4729 217.454 81.733C217.425 81.2262 217.592 80.7276 217.92 80.3391C218.248 79.9505 218.714 79.7016 219.22 79.6432C219.471 79.6043 219.727 79.6159 219.973 79.6774C220.219 79.7388 220.45 79.8488 220.652 80.0009C220.812 80.1214 220.946 80.2732 221.045 80.447C221.143 80.6208 221.205 80.8128 221.227 81.0113C221.465 83.2732 222.327 85.4256 223.718 87.2306C223.84 87.3885 223.929 87.5697 223.977 87.763C224.026 87.9562 224.035 88.1573 224.002 88.3539C223.962 88.6058 223.871 88.8469 223.734 89.0627C223.598 89.2784 223.418 89.4643 223.207 89.6091C222.85 89.8531 222.423 89.9783 221.99 89.9668ZM219.511 80.2331H219.302C218.96 80.2737 218.645 80.4405 218.419 80.7007C218.194 80.9609 218.075 81.2956 218.085 81.6389C218.364 84.2697 219.365 86.7733 220.98 88.8748C221.211 89.1299 221.529 89.2901 221.872 89.3238C222.216 89.3574 222.559 89.2622 222.835 89.0568C222.977 88.9632 223.097 88.8421 223.191 88.7008C223.284 88.5595 223.348 88.401 223.378 88.2347C223.394 88.1249 223.389 88.0129 223.362 87.9052C223.335 87.7975 223.287 87.6962 223.22 87.6071C221.757 85.7091 220.849 83.4463 220.596 81.0678C220.583 80.9537 220.547 80.8434 220.491 80.7432C220.434 80.643 220.358 80.5549 220.268 80.4841C220.05 80.3205 219.783 80.2343 219.511 80.2394V80.2331Z" fill="#093269"/>
<path d="M150.006 132.523C149.922 132.528 149.84 132.499 149.777 132.444C149.714 132.389 149.676 132.311 149.671 132.228C149.666 132.144 149.695 132.063 149.75 132C149.806 131.938 149.884 131.9 149.968 131.895C150.252 131.864 178.387 128.506 200.788 110.451C200.852 110.399 200.935 110.374 201.018 110.382C201.1 110.391 201.176 110.431 201.229 110.495C201.28 110.561 201.304 110.643 201.296 110.726C201.288 110.809 201.248 110.886 201.185 110.94C178.639 129.14 150.327 132.485 150.043 132.516L150.006 132.523Z" fill="#ACCCF8"/>
<path d="M163.083 32.5311C163.643 32.2952 164.094 31.8583 164.345 31.3073C165.386 29.7122 165.951 27.8558 165.972 25.9541C165.917 23.1684 164.772 20.5139 162.782 18.5537C160.792 16.5935 158.112 15.4819 155.311 15.4547L157.545 17.2621C155.631 17.1873 153.728 17.5813 152.003 18.4097C150.278 19.2381 148.784 20.4755 147.653 22.0129C148.409 21.7933 149.217 21.8308 149.949 22.1196C148.808 22.4151 147.685 22.7776 146.587 23.2053C146.413 23.2525 146.258 23.3536 146.145 23.494C146.054 23.6909 146.04 23.9151 146.108 24.1215C146.915 27.8556 149.729 31.301 153.482 32.0917C154.113 32.2235 154.744 32.28 155.419 32.3616C156.851 32.5436 158.264 32.8448 159.708 32.9201C160.615 32.9843 161.526 32.9188 162.415 32.7256C162.641 32.6746 162.865 32.6096 163.083 32.5311Z" fill="white"/>
<path d="M160.358 33.2402H159.652C158.708 33.1735 157.769 33.0583 156.838 32.895C156.34 32.8197 155.841 32.7444 155.343 32.6817L154.876 32.6252C154.384 32.5624 153.88 32.5059 153.381 32.3992C149.729 31.6336 146.682 28.3451 145.811 24.2408C145.764 24.1 145.746 23.951 145.759 23.803C145.772 23.6551 145.816 23.5114 145.887 23.381C146.03 23.1906 146.231 23.0517 146.461 22.9856C147.205 22.6907 147.962 22.4333 148.726 22.2011C148.384 22.1915 148.044 22.236 147.716 22.3329C147.659 22.3495 147.598 22.3482 147.542 22.3291C147.485 22.31 147.436 22.2741 147.401 22.2263C147.367 22.1763 147.348 22.1172 147.348 22.0568C147.348 21.9964 147.367 21.9373 147.401 21.8874C148.481 20.428 149.879 19.2311 151.491 18.3866C153.102 17.542 154.885 17.0717 156.706 17.0111L155.11 15.7183C155.064 15.6799 155.032 15.6289 155.016 15.5718C155 15.5147 155.002 15.4542 155.021 15.3982C155.043 15.3426 155.081 15.2948 155.131 15.2612C155.18 15.2276 155.239 15.2097 155.299 15.21C158.17 15.2383 160.917 16.3744 162.963 18.3787C165.008 20.3829 166.191 23.0989 166.263 25.954C166.249 27.9182 165.668 29.837 164.591 31.483C164.308 32.0882 163.809 32.567 163.191 32.826C162.958 32.92 162.717 32.9935 162.472 33.0456C161.777 33.1927 161.068 33.258 160.358 33.2402ZM148.637 21.561C149.119 21.5626 149.596 21.6541 150.044 21.8309C150.1 21.8549 150.148 21.8954 150.181 21.947C150.213 21.9985 150.229 22.0587 150.227 22.1196C150.222 22.179 150.198 22.2354 150.16 22.2814C150.122 22.3273 150.07 22.3606 150.013 22.3769C148.879 22.6674 147.764 23.0279 146.675 23.4563C146.603 23.4586 146.533 23.4806 146.473 23.5201C146.413 23.5595 146.365 23.6147 146.334 23.6797C146.303 23.7446 146.291 23.8168 146.299 23.8881C146.307 23.9594 146.335 24.0272 146.379 24.0839C147.224 27.9999 150.095 31.1127 153.526 31.8344C153.999 31.9348 154.491 31.9913 154.965 32.0478L155.444 32.1043C155.942 32.167 156.447 32.2486 156.952 32.3239C157.864 32.4843 158.784 32.5975 159.708 32.6628C160.588 32.7287 161.473 32.6631 162.333 32.4683C162.548 32.4208 162.759 32.3557 162.964 32.2737C163.466 32.0652 163.868 31.6718 164.086 31.1755C165.106 29.6209 165.662 27.8103 165.689 25.954C165.635 23.392 164.634 20.9395 162.878 19.0643C161.123 17.1892 158.735 16.0227 156.169 15.7873L157.715 17.0425C157.762 17.0813 157.795 17.1334 157.811 17.1918C157.827 17.2502 157.824 17.312 157.803 17.3688C157.785 17.4273 157.746 17.4774 157.694 17.5106C157.643 17.5439 157.581 17.5581 157.519 17.5508C155.78 17.4907 154.049 17.8237 152.457 18.5248C150.865 19.2259 149.453 20.2768 148.328 21.5987L148.637 21.561Z" fill="#093269"/>
<path d="M155.393 38.1666C155.393 38.1666 155.507 44.731 158.611 44.9381C161.714 45.1452 161.765 39.133 161.765 39.133" fill="#093269"/>
<path d="M158.762 45.2206H158.592C155.267 45.001 155.116 38.4554 155.109 38.1792C155.103 38.1391 155.106 38.098 155.117 38.059C155.129 38.0199 155.148 37.9838 155.175 37.953C155.202 37.9222 155.235 37.8975 155.272 37.8806C155.309 37.8636 155.349 37.8548 155.39 37.8548C155.431 37.8548 155.471 37.8636 155.508 37.8806C155.546 37.8975 155.579 37.9222 155.605 37.953C155.632 37.9838 155.652 38.0199 155.663 38.059C155.674 38.098 155.677 38.1391 155.671 38.1792C155.671 38.242 155.816 44.4864 158.629 44.6746C158.874 44.6969 159.12 44.6657 159.351 44.5833C159.582 44.5009 159.792 44.3693 159.967 44.1977C161.443 42.8421 161.512 39.1771 161.512 39.1394C161.517 39.0683 161.548 39.0014 161.599 38.9515C161.65 38.9017 161.718 38.8725 161.79 38.8696C161.864 38.8696 161.934 38.8987 161.986 38.9504C162.038 39.0022 162.067 39.0725 162.067 39.1457C162.067 39.3089 161.998 43.0869 160.345 44.6056C159.917 45.0057 159.35 45.226 158.762 45.2206Z" fill="#093269"/>
<path d="M161.5 34.991L161.79 39.133C161.79 39.133 161.519 41.4676 158.939 40.9216C158.179 40.7533 157.467 40.4188 156.854 39.9422C156.24 39.4656 155.742 38.859 155.394 38.1665C155.394 38.1665 154.763 28.2509 154.529 25.615C156.382 25.395 158.169 24.7899 159.772 23.839C160.01 23.6575 160.27 23.5077 160.547 23.3934C161.065 23.3181 161.002 23.6068 161.229 24.021C161.643 24.8137 162.308 25.4488 163.121 25.8284C163.225 25.8627 163.317 25.9259 163.386 26.0104C163.425 26.0795 163.447 26.1571 163.449 26.2363C163.714 28.6023 164.2 30.9557 163.859 33.3342C163.582 35.3676 161.5 34.991 161.5 34.991Z" fill="white"/>
<path d="M159.677 41.292C159.409 41.2925 159.143 41.263 158.882 41.2041C158.076 41.0304 157.32 40.6777 156.67 40.1724C156.02 39.667 155.493 39.0222 155.129 38.2859C155.123 38.2527 155.123 38.2187 155.129 38.1855C155.129 38.0851 154.498 28.2447 154.271 25.634C154.265 25.5566 154.29 25.4802 154.34 25.4206C154.364 25.3921 154.394 25.3689 154.428 25.3527C154.461 25.3364 154.498 25.3275 154.536 25.3265C156.347 25.1086 158.092 24.5142 159.658 23.5818L159.872 23.4437C160.056 23.287 160.271 23.1715 160.503 23.1048C160.596 23.0808 160.693 23.0757 160.788 23.0901C160.883 23.1045 160.974 23.138 161.055 23.1885C161.137 23.239 161.207 23.3055 161.262 23.3839C161.317 23.4623 161.355 23.551 161.374 23.6446C161.404 23.7354 161.442 23.8235 161.487 23.9081C161.867 24.6463 162.484 25.2363 163.241 25.5838C163.399 25.6404 163.535 25.7433 163.632 25.8787C163.693 25.9843 163.727 26.1025 163.733 26.2239C163.79 26.7322 163.859 27.2406 163.922 27.7426C164.258 29.6061 164.333 31.507 164.143 33.3908C164.117 33.6782 164.031 33.9571 163.891 34.2098C163.751 34.4626 163.56 34.6837 163.329 34.8593C162.879 35.1535 162.348 35.3025 161.809 35.2861L162.074 39.0892C162.034 39.4351 161.925 39.7695 161.754 40.0733C161.583 40.377 161.353 40.6441 161.077 40.859C160.669 41.1488 160.178 41.3006 159.677 41.292ZM155.677 38.0976C156.012 38.737 156.483 39.2962 157.057 39.7362C157.631 40.1762 158.295 40.4865 159.002 40.6456C159.27 40.7421 159.557 40.7771 159.84 40.7479C160.124 40.7187 160.397 40.6261 160.64 40.4771C160.883 40.328 161.088 40.1263 161.242 39.8871C161.395 39.6478 161.492 39.3772 161.525 39.0955L161.235 35.0162C161.231 34.9734 161.238 34.9304 161.253 34.8902C161.268 34.85 161.292 34.8138 161.323 34.784C161.356 34.7539 161.395 34.7315 161.438 34.7184C161.48 34.7054 161.525 34.7021 161.569 34.7087C162.069 34.7824 162.578 34.6779 163.008 34.4138C163.174 34.2818 163.312 34.1175 163.413 33.9309C163.514 33.7442 163.576 33.5391 163.594 33.328C163.767 31.496 163.693 29.6492 163.374 27.8368C163.304 27.3284 163.241 26.8201 163.184 26.3055C163.184 26.3055 163.184 26.2176 163.184 26.1988L163.052 26.1298C162.165 25.7324 161.438 25.0493 160.989 24.1906C160.935 24.0865 160.886 23.9797 160.844 23.8705C160.822 23.8055 160.795 23.7425 160.762 23.6822C160.71 23.6767 160.657 23.6767 160.604 23.6822C160.454 23.7431 160.314 23.8256 160.188 23.927C160.087 23.9897 159.999 24.0588 159.923 24.0964C158.373 25.0119 156.659 25.6173 154.876 25.8787C155.066 28.7279 155.627 37.3194 155.677 38.0976Z" fill="#093269"/>
<path d="M161.62 37.0307C160.596 37.1114 159.58 36.7993 158.781 36.1584C158.453 35.8923 158.188 35.5587 158.003 35.1805C157.818 34.8023 157.717 34.3887 157.708 33.9682C158.866 34.6134 160.166 34.9648 161.493 34.9911L161.62 37.0307Z" fill="#093269"/>
<path d="M161.304 37.3193C160.309 37.339 159.34 36.9977 158.579 36.3591C158.221 36.0655 157.932 35.6977 157.731 35.2815C157.531 34.8653 157.424 34.4107 157.418 33.9492C157.423 33.9022 157.44 33.8572 157.466 33.8179C157.493 33.7786 157.528 33.7461 157.57 33.7233C157.611 33.7002 157.658 33.6881 157.705 33.6881C157.753 33.6881 157.799 33.7002 157.841 33.7233C158.954 34.3546 160.206 34.7038 161.487 34.74C161.56 34.7397 161.63 34.7666 161.684 34.8155C161.738 34.8643 161.771 34.9314 161.777 35.0035L161.885 37.0369C161.89 37.1075 161.867 37.1773 161.821 37.2313C161.775 37.2853 161.709 37.3192 161.638 37.3256C161.527 37.333 161.415 37.3309 161.304 37.3193ZM158.024 34.445C158.171 35.0295 158.495 35.5551 158.951 35.9512C159.616 36.4955 160.456 36.783 161.317 36.7608L161.235 35.2734C160.118 35.2204 159.025 34.9384 158.024 34.445Z" fill="#093269"/>
<path d="M160.862 27.6421C160.862 27.6421 162.326 29.5249 162.03 29.914C161.733 30.3031 160.831 30.1085 160.831 30.1085" fill="white"/>
<path d="M161.291 30.4286C161.12 30.4302 160.948 30.4134 160.78 30.3784C160.744 30.3718 160.71 30.3582 160.679 30.3384C160.648 30.3186 160.622 30.293 160.601 30.263C160.58 30.233 160.566 30.1992 160.558 30.1635C160.55 30.1279 160.55 30.0911 160.556 30.0552C160.563 30.0194 160.577 29.9852 160.597 29.9546C160.616 29.924 160.642 29.8976 160.672 29.8769C160.703 29.8562 160.737 29.8416 160.772 29.834C160.808 29.8264 160.845 29.8258 160.881 29.8324C161.19 29.8952 161.689 29.8952 161.815 29.7383C161.522 29.0494 161.127 28.4083 160.641 27.8367C160.619 27.808 160.602 27.775 160.593 27.7398C160.583 27.7047 160.58 27.6679 160.585 27.6317C160.59 27.5956 160.602 27.5607 160.62 27.5291C160.638 27.4975 160.663 27.4698 160.692 27.4477C160.721 27.4256 160.755 27.4095 160.79 27.4004C160.826 27.3913 160.863 27.3893 160.899 27.3945C160.936 27.3998 160.971 27.4122 161.002 27.431C161.034 27.4498 161.061 27.4747 161.083 27.5041C162.143 28.8785 162.534 29.7571 162.25 30.1148C162.121 30.23 161.969 30.3173 161.804 30.3713C161.639 30.4253 161.464 30.4448 161.291 30.4286Z" fill="#093269"/>
<path d="M160.68 32.5812H160.566C159.172 32.5059 158.125 31.1629 158.081 31.1064C158.058 31.0776 158.042 31.0446 158.032 31.0095C158.023 30.9743 158.02 30.9376 158.025 30.9015C158.03 30.8654 158.041 30.8305 158.06 30.7989C158.078 30.7673 158.102 30.7396 158.131 30.7173C158.16 30.6951 158.193 30.6787 158.229 30.6692C158.264 30.6597 158.301 30.6572 158.337 30.6619C158.373 30.6665 158.409 30.6783 158.44 30.6964C158.472 30.7145 158.5 30.7387 158.522 30.7675C158.522 30.7675 159.462 31.9662 160.591 32.0227C160.889 32.0264 161.184 31.9621 161.453 31.8349C161.722 31.7076 161.958 31.5206 162.143 31.2884C162.196 31.2385 162.266 31.2107 162.339 31.2107C162.412 31.2107 162.482 31.2385 162.534 31.2884C162.561 31.3142 162.582 31.3449 162.596 31.3788C162.611 31.4128 162.618 31.4493 162.618 31.4861C162.618 31.523 162.611 31.5594 162.596 31.5934C162.582 31.6273 162.561 31.6581 162.534 31.6838C162.306 31.9549 162.023 32.175 161.703 32.3296C161.384 32.4843 161.035 32.57 160.68 32.5812Z" fill="#093269"/>
<path d="M162.749 90.9394L158.138 109.603C158.138 109.603 181.106 101.953 181.933 99.4556C182.759 96.9578 170.054 99.8321 170.054 99.8321L170.956 94.4977L162.749 90.9394Z" fill="white"/>
<path d="M158.137 109.917C158.09 109.917 158.043 109.906 158 109.884C157.958 109.863 157.921 109.833 157.891 109.796C157.862 109.758 157.842 109.715 157.832 109.668C157.822 109.622 157.823 109.574 157.835 109.528L162.44 90.8641C162.45 90.8193 162.471 90.7774 162.5 90.7414C162.529 90.7054 162.565 90.6762 162.607 90.6558C162.649 90.6354 162.694 90.6244 162.74 90.6235C162.787 90.6227 162.833 90.6319 162.875 90.6507L171.076 94.2091C171.14 94.238 171.192 94.2865 171.226 94.3475C171.261 94.4085 171.274 94.4788 171.265 94.548L170.451 99.4242C172.975 98.872 180.81 97.2905 182.078 98.6837C182.185 98.7975 182.257 98.9399 182.285 99.0935C182.313 99.2472 182.296 99.4056 182.235 99.5497C181.384 102.129 160.61 109.114 158.264 109.898C158.224 109.915 158.18 109.922 158.137 109.917ZM162.963 91.3787L158.585 109.12C167.417 106.152 181.074 101.031 181.636 99.3552C181.68 99.2046 181.636 99.1481 181.604 99.1042C180.74 98.1565 174.104 99.236 170.123 100.14C170.073 100.15 170.021 100.148 169.971 100.134C169.922 100.12 169.876 100.094 169.839 100.058C169.801 100.022 169.773 99.978 169.756 99.9287C169.74 99.8794 169.736 99.8269 169.745 99.7757L170.609 94.686L162.963 91.3787Z" fill="#093269"/>
<path d="M143.559 70.0664C143.559 70.0664 140.373 83.2454 146.663 85.034C152.952 86.8226 163.474 79.6683 163.474 79.6683L160.068 91.9123C160.068 91.9123 157.784 97.4412 161.096 97.1964C164.08 93.3494 168.155 92.3327 170.956 94.4979C175.34 89.6593 183.037 74.4594 178.066 69.2442C173.095 64.0291 143.559 70.0664 143.559 70.0664Z" fill="#093269"/>
<path d="M160.888 97.4977C160.608 97.5166 160.328 97.4664 160.073 97.3514C159.817 97.2364 159.594 97.0603 159.424 96.8387C158.358 95.3827 159.752 91.975 159.809 91.8181L163.007 80.3209C160.629 81.8334 152.113 86.8854 146.606 85.3415C140.133 83.5027 143.174 70.5872 143.306 70.0412C143.319 69.99 143.345 69.9432 143.383 69.9065C143.421 69.8698 143.469 69.8447 143.521 69.8341C144.738 69.5831 173.271 63.822 178.286 69.0936C183.301 74.3652 175.763 89.6843 171.183 94.7175C171.136 94.7705 171.071 94.804 171.001 94.811C170.931 94.818 170.86 94.798 170.804 94.7552C170.274 94.3431 169.665 94.0408 169.015 93.8662C168.365 93.6916 167.687 93.6482 167.019 93.7385C165.001 93.9958 162.995 95.2949 161.342 97.4035C161.319 97.4344 161.29 97.4599 161.256 97.4783C161.222 97.4968 161.185 97.5076 161.146 97.5102L160.888 97.4977ZM163.474 79.4109C163.534 79.4114 163.591 79.4312 163.638 79.4674C163.685 79.4993 163.72 79.5449 163.739 79.5978C163.758 79.6507 163.761 79.7082 163.745 79.7624L160.358 91.9875C159.979 92.9226 159.166 95.4894 159.904 96.4998C160.031 96.6564 160.196 96.778 160.384 96.8527C160.572 96.9274 160.775 96.9529 160.976 96.9266C162.692 94.7614 164.799 93.4247 166.931 93.1611C168.343 92.9608 169.779 93.3067 170.943 94.1276C175.296 89.1509 182.582 74.3715 177.882 69.4388C173.183 64.506 146.259 69.8216 143.817 70.3111C143.477 71.8487 141.18 83.1889 146.763 84.7453C152.845 86.4712 163.241 79.4862 163.342 79.4172C163.383 79.3986 163.429 79.39 163.474 79.3921V79.4109Z" fill="#093269"/>
<path d="M158.138 109.604C158.138 109.604 160.661 112.064 167.852 109.604C175.044 107.143 184.128 100.548 181.933 99.4557C179.737 98.3637 160.573 106.158 158.138 109.604Z" fill="#093269"/>
<path d="M162.131 110.978C159.21 110.978 158.018 109.867 157.948 109.798C157.9 109.753 157.87 109.692 157.863 109.626C157.856 109.561 157.873 109.495 157.911 109.44C160.308 106.058 179.491 97.9244 182.059 99.2047C182.215 99.2752 182.346 99.3921 182.433 99.5392C182.52 99.6864 182.559 99.8567 182.545 100.027C182.393 102.198 174.211 107.715 167.947 109.867C166.083 110.553 164.118 110.928 162.131 110.978ZM158.535 109.553C159.248 110.024 161.942 111.336 167.764 109.34C174.073 107.175 181.87 101.759 181.989 99.9891C181.996 99.9276 181.981 99.8657 181.948 99.8133C181.915 99.761 181.865 99.7212 181.807 99.7004C179.914 98.7528 161.532 106.058 158.535 109.553Z" fill="#093269"/>
<path d="M171.082 98.6461C169.423 99.2595 167.813 100 166.269 100.861L166.528 97.9746C166.528 97.9746 170.256 96.1735 171.082 96.2802V98.6461Z" fill="white"/>
<path d="M166.282 101.175C166.226 101.176 166.171 101.16 166.124 101.131C166.072 101.101 166.03 101.057 166.003 101.003C165.976 100.95 165.966 100.89 165.973 100.83L166.231 97.9496C166.235 97.8965 166.252 97.8453 166.282 97.8012C166.312 97.7571 166.353 97.7217 166.401 97.6985C167.032 97.391 170.268 95.866 171.139 95.9664C171.215 95.9758 171.286 96.0131 171.336 96.0711C171.386 96.1291 171.412 96.2037 171.41 96.2802V98.6462C171.41 98.7097 171.39 98.7717 171.355 98.8242C171.319 98.8768 171.268 98.9174 171.208 98.9411C169.571 99.5471 167.983 100.277 166.458 101.125C166.405 101.158 166.344 101.175 166.282 101.175ZM166.843 98.1818L166.654 100.272C167.993 99.5814 169.37 98.9675 170.779 98.4328V96.6128C169.424 97.0214 168.107 97.5464 166.843 98.1818Z" fill="#093269"/>
<path d="M151.293 38.719C151.293 38.719 128.513 47.9192 126.583 50.5048C124.653 53.0905 121.341 68.7673 121.341 68.7673L128.223 67.782C128.223 67.782 134.45 58.0546 136.38 55.9961C138.31 53.9377 149.217 51.0571 149.217 51.0571L151.293 38.719Z" fill="#1264D1"/>
<path d="M131.97 63.345L127.34 71.2274C127.34 71.2274 131.277 74.3653 130.318 74.8799C129.359 75.3945 128.425 75.8024 128.425 75.8024C128.425 75.8024 128.324 78.3817 127.163 78.6893C126.003 78.9968 119.524 78.4257 119.814 76.2166C120.824 68.5978 122.079 59.931 121.997 60.9226L131.97 63.345Z" fill="white"/>
<path d="M126.255 79.0783C124.52 79.0783 121.404 78.6453 120.136 77.5407C119.925 77.3843 119.76 77.1756 119.656 76.9355C119.552 76.6954 119.513 76.4324 119.543 76.1726C119.966 72.9406 120.489 69.1501 120.969 65.78C121.391 62.8367 121.6 61.5313 121.719 60.9602C121.716 60.9373 121.716 60.9141 121.719 60.8912C121.716 60.9056 121.716 60.9207 121.719 60.9351C121.827 60.5084 121.909 60.5146 122.06 60.5335C122.105 60.5367 122.148 60.5497 122.188 60.5713C122.227 60.593 122.261 60.6229 122.287 60.659L132.034 63.0375C132.081 63.0501 132.124 63.0729 132.161 63.1044C132.199 63.1359 132.228 63.1752 132.248 63.2195C132.27 63.2634 132.281 63.3117 132.281 63.3607C132.281 63.4097 132.27 63.458 132.248 63.5019L127.744 71.1395C128.69 71.9114 130.854 73.7753 130.772 74.6727C130.763 74.7712 130.73 74.8659 130.675 74.9481C130.619 75.0304 130.544 75.0975 130.456 75.1434C129.75 75.52 129.062 75.8526 128.747 75.9969C128.696 76.6684 128.45 78.6641 127.29 78.9779C126.95 79.0513 126.603 79.085 126.255 79.0783ZM122.268 61.3054C122.003 62.9559 121.007 69.74 120.168 76.2542C120.155 76.4117 120.184 76.5698 120.251 76.7129C120.319 76.8559 120.423 76.979 120.552 77.0701C121.953 78.2876 126.23 78.6202 127.119 78.3817C127.87 78.1809 128.103 76.3986 128.129 75.7898C128.131 75.7325 128.15 75.677 128.182 75.6294C128.215 75.5819 128.259 75.544 128.312 75.52C128.312 75.52 129.22 75.1058 130.16 74.6037C130.198 74.2711 128.791 72.79 127.138 71.4658C127.078 71.4197 127.038 71.3534 127.024 71.2793C127.01 71.2053 127.024 71.1287 127.063 71.0642L131.478 63.5333L122.268 61.3054Z" fill="#093269"/>
<path d="M193.357 30.9373C193.357 30.6235 190.247 20.0991 190.247 20.0991L196.978 17.7519C196.978 17.7519 196.877 15.2793 198.321 14.3505C199.766 13.4217 201.74 14.3505 201.74 14.3505C201.74 14.3505 207.639 9.41147 208.364 10.4407C209.09 11.4699 206.913 13.7355 203.601 16.0889C203.601 16.0889 205.361 21.0342 203.393 22.578C202.241 23.4956 200.844 24.0564 199.375 24.1909L193.357 30.9373Z" fill="white"/>
<path d="M193.357 31.2508C193.319 31.2568 193.281 31.2568 193.243 31.2508C193.186 31.2297 193.136 31.1923 193.1 31.1432C193.064 31.094 193.044 31.0354 193.041 30.9747C192.972 30.5353 191.149 24.3035 189.944 20.2055C189.923 20.1272 189.932 20.0441 189.97 19.9722C190.007 19.9003 190.07 19.8448 190.146 19.8164L196.662 17.5445C196.662 16.873 196.833 14.9527 198.151 14.1054C199.47 13.2582 201.129 13.7854 201.684 14.005C202.813 13.0699 206.813 9.82536 208.156 10.0074C208.249 10.0172 208.338 10.0463 208.418 10.0928C208.499 10.1393 208.569 10.2021 208.623 10.2772C209.67 11.7646 206.251 14.5949 203.974 16.2392C204.302 17.2621 205.481 21.3728 203.589 22.8538C202.42 23.7811 201.012 24.3618 199.526 24.5295L193.59 31.1629C193.559 31.1926 193.523 31.2157 193.483 31.2308C193.443 31.2459 193.4 31.2527 193.357 31.2508ZM190.638 20.3059C191.603 23.5944 193.048 28.5208 193.515 30.2969L199.142 24.0211C199.199 23.959 199.278 23.9209 199.362 23.9144C200.764 23.7801 202.097 23.2437 203.198 22.3706C204.668 21.2159 203.772 17.5508 203.305 16.2329C203.283 16.1691 203.282 16.0998 203.302 16.0353C203.323 15.9709 203.364 15.9147 203.419 15.8752C207.267 13.1264 208.541 11.2625 208.106 10.6412C207.658 10.3714 204.788 12.2353 201.942 14.62C201.896 14.6578 201.84 14.6814 201.781 14.6881C201.722 14.6948 201.662 14.6842 201.608 14.6577C201.608 14.6577 199.772 13.823 198.492 14.6577C197.211 15.4924 197.293 17.7579 197.293 17.7956C197.295 17.8629 197.276 17.9292 197.237 17.9846C197.199 18.04 197.143 18.0815 197.079 18.1031L190.638 20.3059Z" fill="#093269"/>
<path d="M167.518 62.0145H167.461C167.386 61.9994 167.32 61.9552 167.277 61.8917C167.235 61.8282 167.219 61.7505 167.234 61.6756C169.082 52.626 170.836 36.3529 170.748 35.5622C170.738 35.5268 170.736 35.4898 170.741 35.4535C170.746 35.4172 170.759 35.3822 170.777 35.3506C170.796 35.3191 170.821 35.2916 170.851 35.2697C170.88 35.2479 170.914 35.2321 170.95 35.2233C171.026 35.2043 171.106 35.2161 171.174 35.2561C171.241 35.2961 171.29 35.361 171.309 35.4367C171.467 36.0203 169.65 52.7327 167.802 61.7948C167.785 61.8573 167.749 61.9127 167.697 61.9524C167.646 61.9921 167.583 62.0139 167.518 62.0145Z" fill="#093269"/>
<path d="M138.43 54.5086C138.363 54.5068 138.298 54.4818 138.248 54.4379C138.197 54.394 138.163 54.334 138.152 54.268C138.141 54.2021 138.153 54.1344 138.186 54.0764C138.22 54.0184 138.272 53.9738 138.335 53.9501L151.198 49.7453C151.269 49.728 151.344 49.7378 151.408 49.7728C151.471 49.8078 151.52 49.8655 151.543 49.9343C151.566 50.0032 151.562 50.0781 151.532 50.1443C151.502 50.2105 151.448 50.263 151.381 50.2913L138.518 54.4961C138.49 54.506 138.46 54.5103 138.43 54.5086Z" fill="#093269"/>
<path d="M201.86 20.9335C201.806 20.9395 201.751 20.9395 201.696 20.9335C201.208 20.8282 200.756 20.5996 200.382 20.2699C200.009 19.9401 199.727 19.5203 199.564 19.0508C199.519 19.4639 199.355 19.8553 199.092 20.1782C198.829 20.501 198.478 20.7415 198.081 20.8707C198.045 20.8827 198.007 20.8871 197.969 20.8837C197.931 20.8803 197.895 20.8693 197.861 20.8512C197.828 20.8331 197.799 20.8084 197.775 20.7786C197.752 20.7488 197.735 20.7145 197.725 20.6779C197.716 20.6412 197.714 20.6031 197.72 20.5657C197.726 20.5283 197.739 20.4926 197.76 20.4606C197.78 20.4287 197.807 20.4013 197.838 20.3801C197.87 20.3588 197.905 20.3443 197.943 20.3373C199.349 19.9733 199.103 17.532 199.097 17.5069C199.09 17.4339 199.112 17.361 199.158 17.3036C199.203 17.2462 199.27 17.2089 199.343 17.1994C199.415 17.1937 199.487 17.2149 199.544 17.2591C199.601 17.3032 199.64 17.367 199.652 17.4379C199.652 17.4379 200.043 20.0737 201.778 20.331C201.836 20.3463 201.897 20.3449 201.954 20.3272C202.011 20.3094 202.061 20.2759 202.1 20.2306C202.731 19.5403 202.037 16.2957 201.469 14.4193C201.447 14.3494 201.454 14.2737 201.489 14.209C201.523 14.1443 201.582 14.0958 201.652 14.0741C201.687 14.0635 201.724 14.06 201.761 14.0638C201.797 14.0676 201.833 14.0785 201.865 14.096C201.897 14.1136 201.926 14.1373 201.949 14.1658C201.972 14.1944 201.989 14.2272 201.999 14.2624C202.157 14.7895 203.513 19.4461 202.51 20.5946C202.434 20.6964 202.337 20.7797 202.224 20.8384C202.112 20.8971 201.987 20.9297 201.86 20.9335Z" fill="#093269"/>
<path d="M59.6013 106.528C58.655 104.646 49.4196 88.837 48.0002 78.7079C48.0002 78.7079 47.8362 98.4452 56.0875 108.606C64.3388 118.766 59.6013 106.528 59.6013 106.528Z" fill="#ACCCF8"/>
<path d="M156.472 26.8452L153.293 28.207V28.8973L157.589 27.6422L156.472 26.8452Z" fill="#093269"/>
<path d="M153.292 29.1735C153.231 29.174 153.171 29.1541 153.122 29.117C153.088 29.0914 153.061 29.0581 153.042 29.02C153.023 28.9818 153.014 28.9398 153.015 28.8974V28.2071C153.014 28.1529 153.029 28.0996 153.058 28.0539C153.087 28.0081 153.129 27.9719 153.179 27.9497L156.333 26.5879C156.377 26.5694 156.425 26.5626 156.473 26.5681C156.52 26.5736 156.566 26.5912 156.604 26.6193L157.721 27.4226C157.762 27.4532 157.794 27.4947 157.813 27.5424C157.832 27.59 157.837 27.642 157.828 27.6924C157.82 27.7439 157.798 27.792 157.763 27.831C157.728 27.87 157.683 27.8981 157.633 27.9121L153.337 29.1672L153.292 29.1735ZM153.57 28.3891V28.5271L156.964 27.5355L156.44 27.159L153.57 28.3891Z" fill="#093269"/>
<path d="M155.431 29.4747C154.952 28.8848 154.169 27.8054 153.293 28.2196C153.053 28.3314 152.849 28.5047 152.7 28.7216C152.405 29.1668 152.252 29.69 152.261 30.223C152.27 30.756 152.44 31.2738 152.75 31.7089C153.223 32.5122 154.642 33.6795 155.463 32.5812" fill="white"/>
<path d="M154.624 33.3029H154.541C154.116 33.2184 153.714 33.0449 153.362 32.7939C153.01 32.5428 152.715 32.22 152.498 31.8469C152.162 31.3588 151.983 30.7813 151.983 30.1901C151.983 29.5989 152.162 29.0215 152.498 28.5333C152.677 28.2781 152.92 28.0746 153.204 27.9434C154.239 27.4853 155.097 28.527 155.57 29.1483L155.683 29.2927C155.731 29.3523 155.754 29.4282 155.747 29.5042C155.74 29.5803 155.704 29.6507 155.645 29.7006C155.616 29.7247 155.581 29.7427 155.545 29.7535C155.508 29.7643 155.469 29.7678 155.431 29.7637C155.393 29.7596 155.356 29.7481 155.323 29.7297C155.289 29.7113 155.259 29.6865 155.235 29.6567L155.116 29.5061C154.56 28.8094 154.012 28.2133 153.438 28.4643C153.245 28.5594 153.08 28.702 152.958 28.8785C152.699 29.2797 152.567 29.7491 152.579 30.2258C152.592 30.7026 152.748 31.1646 153.028 31.5519C153.194 31.8458 153.42 32.1019 153.692 32.304C153.963 32.506 154.274 32.6496 154.605 32.7255C154.729 32.726 154.852 32.6959 154.962 32.6378C155.072 32.5798 155.166 32.4957 155.235 32.3929C155.283 32.3335 155.351 32.295 155.427 32.2856C155.502 32.2762 155.579 32.2967 155.639 32.3427C155.669 32.3655 155.695 32.394 155.714 32.4267C155.733 32.4594 155.745 32.4955 155.75 32.5329C155.754 32.5704 155.751 32.6084 155.741 32.6447C155.731 32.681 155.713 32.7149 155.69 32.7443C155.569 32.915 155.41 33.0547 155.224 33.1519C155.039 33.249 154.833 33.3008 154.624 33.3029Z" fill="#093269"/>
<path d="M158.549 28.1154C159.61 28.0032 160.399 27.2557 160.312 26.4458C160.226 25.6358 159.296 25.0701 158.236 25.1823C157.176 25.2944 156.387 26.0419 156.473 26.8519C156.56 27.6618 157.489 28.2275 158.549 28.1154Z" fill="white"/>
<path d="M158.289 28.4142C157.81 28.4557 157.333 28.3226 156.947 28.0396C156.56 27.7566 156.29 27.3432 156.188 26.8767C156.081 25.9102 156.989 24.9939 158.206 24.8872C158.756 24.824 159.311 24.9384 159.79 25.2136C160.009 25.3351 160.197 25.5065 160.337 25.7136C160.477 25.9208 160.567 26.158 160.597 26.406C160.705 27.3724 159.796 28.2887 158.579 28.3954C158.482 28.4079 158.386 28.4142 158.289 28.4142ZM158.503 25.4458H158.263C157.367 25.5399 156.692 26.1487 156.762 26.8014C156.831 27.454 157.614 27.9059 158.522 27.8117C159.43 27.7176 160.099 27.1089 160.03 26.4562C160.004 26.2959 159.941 26.1436 159.847 26.011C159.753 25.8783 159.63 25.7687 159.487 25.6905C159.188 25.5214 158.847 25.4368 158.503 25.4458Z" fill="#093269"/>
<path d="M162.5 27.927C163.561 27.8149 164.35 27.0673 164.263 26.2574C164.177 25.4475 163.247 24.8818 162.187 24.9939C161.127 25.1061 160.338 25.8536 160.424 26.6635C160.511 27.4735 161.44 28.0392 162.5 27.927Z" fill="white"/>
<path d="M162.25 28.2259C161.772 28.2674 161.295 28.1342 160.908 27.8512C160.522 27.5683 160.252 27.1548 160.149 26.6883C160.049 25.7219 160.957 24.8056 162.168 24.6989C163.379 24.5922 164.464 25.2512 164.565 26.2176C164.666 27.1841 163.764 28.1004 162.547 28.2008L162.25 28.2259ZM162.471 25.2575H162.231C161.329 25.3516 160.654 25.9603 160.724 26.613C160.793 27.2657 161.588 27.7176 162.484 27.6234C163.379 27.5293 164.061 26.9205 163.991 26.2679C163.901 25.9438 163.697 25.663 163.415 25.4773C163.133 25.2916 162.793 25.2135 162.458 25.2575H162.471Z" fill="#093269"/>
<path d="M83.2195 94.7739C84.8256 94.7739 86.1276 93.4786 86.1276 91.8808C86.1276 90.283 84.8256 88.9877 83.2195 88.9877C81.6133 88.9877 80.3113 90.283 80.3113 91.8808C80.3113 93.4786 81.6133 94.7739 83.2195 94.7739Z" fill="white"/>
<path d="M83.2196 95.0877C82.5805 95.0889 81.9554 94.9015 81.4234 94.5492C80.8914 94.1969 80.4765 93.6955 80.2311 93.1084C79.9856 92.5214 79.9208 91.8752 80.0447 91.2515C80.1686 90.6278 80.4757 90.0546 80.9272 89.6046C81.3786 89.1546 81.9541 88.848 82.5808 88.7235C83.2075 88.599 83.8573 88.6623 84.4478 88.9053C85.0384 89.1483 85.5432 89.5601 85.8983 90.0887C86.2535 90.6172 86.4431 91.2387 86.4431 91.8745C86.4431 92.7256 86.1037 93.5419 85.4993 94.1443C84.895 94.7467 84.0751 95.086 83.2196 95.0877ZM83.2196 89.2951C82.705 89.2939 82.2016 89.4446 81.7732 89.7283C81.3449 90.0119 81.0108 90.4157 80.8133 90.8884C80.6158 91.3611 80.5638 91.8815 80.6639 92.3836C80.7639 92.8858 81.0116 93.3471 81.3755 93.709C81.7393 94.071 82.203 94.3174 82.7078 94.417C83.2125 94.5165 83.7356 94.4648 84.2108 94.2683C84.6859 94.0718 85.0918 93.7395 85.3769 93.3133C85.662 92.8871 85.8135 92.3864 85.8123 91.8745C85.8106 91.1909 85.5369 90.5358 85.0511 90.0524C84.5652 89.5691 83.9067 89.2968 83.2196 89.2951Z" fill="#ACCCF8"/>
<path d="M192.815 57.7282C193.62 57.7282 194.272 57.0792 194.272 56.2785C194.272 55.4779 193.62 54.8288 192.815 54.8288C192.01 54.8288 191.358 55.4779 191.358 56.2785C191.358 57.0792 192.01 57.7282 192.815 57.7282Z" fill="white"/>
<path d="M192.814 58.042C192.464 58.0432 192.12 57.9409 191.828 57.7479C191.535 57.5548 191.307 57.2799 191.172 56.9577C191.037 56.6356 191.001 56.2808 191.069 55.9383C191.136 55.5958 191.305 55.281 191.552 55.0338C191.8 54.7865 192.116 54.6179 192.46 54.5494C192.804 54.4808 193.161 54.5154 193.485 54.6487C193.809 54.782 194.086 55.008 194.281 55.2981C194.477 55.5883 194.581 55.9295 194.581 56.2785C194.581 56.7451 194.395 57.1927 194.064 57.5233C193.733 57.8538 193.283 58.0403 192.814 58.042ZM192.814 55.1426C192.588 55.1414 192.367 55.2069 192.178 55.331C191.99 55.455 191.842 55.632 191.755 55.8395C191.668 56.0469 191.644 56.2755 191.687 56.4963C191.731 56.717 191.839 56.92 191.998 57.0795C192.158 57.239 192.361 57.3478 192.583 57.3921C192.805 57.4365 193.035 57.4143 193.244 57.3286C193.453 57.2428 193.631 57.0972 193.757 56.9102C193.883 56.7233 193.95 56.5034 193.95 56.2785C193.95 55.9783 193.83 55.6904 193.618 55.4775C193.405 55.2647 193.116 55.1443 192.814 55.1426Z" fill="#ACCCF8"/>
<path d="M213.436 52.9147C215.043 52.9147 216.345 51.6194 216.345 50.0216C216.345 48.4238 215.043 47.1285 213.436 47.1285C211.83 47.1285 210.528 48.4238 210.528 50.0216C210.528 51.6194 211.83 52.9147 213.436 52.9147Z" fill="#ACCCF8"/>
<path d="M218.256 157.488C227.304 157.488 234.639 150.191 234.639 141.189C234.639 132.188 227.304 124.891 218.256 124.891C209.208 124.891 201.873 132.188 201.873 141.189C201.873 150.191 209.208 157.488 218.256 157.488Z" fill="white"/>
<path d="M218.262 157.801C215.151 157.801 212.101 156.936 209.457 155.304C206.813 153.671 204.68 151.337 203.299 148.563C201.918 145.789 201.344 142.686 201.641 139.604C201.938 136.523 203.094 133.585 204.98 131.123C206.865 128.66 209.405 126.771 212.312 125.668C215.22 124.565 218.379 124.292 221.434 124.88C224.489 125.468 227.318 126.893 229.602 128.996C231.887 131.098 233.535 133.793 234.361 136.778C235.043 139.244 235.143 141.833 234.654 144.344C234.165 146.854 233.1 149.219 231.542 151.254C229.984 153.288 227.976 154.937 225.672 156.073C223.369 157.209 220.833 157.8 218.262 157.801ZM218.262 125.199C214.899 125.198 211.62 126.247 208.887 128.197C206.155 130.148 204.106 132.902 203.03 136.072C201.953 139.242 201.904 142.668 202.887 145.867C203.871 149.067 205.839 151.879 208.514 153.907C211.189 155.935 214.436 157.078 217.798 157.174C221.16 157.269 224.467 156.314 227.254 154.441C230.041 152.568 232.168 149.873 233.334 146.735C234.5 143.596 234.648 140.173 233.756 136.947C232.818 133.573 230.795 130.597 227.995 128.475C225.196 126.353 221.775 125.203 218.256 125.199H218.262Z" fill="#ACCCF8"/>
<path d="M198.53 150.107C195.603 150.107 192.953 149.687 192.549 148.225C191.9 145.821 198.025 142.683 201.753 141.014C201.83 140.98 201.917 140.979 201.995 141.01C202.073 141.04 202.136 141.1 202.169 141.177C202.203 141.254 202.204 141.34 202.174 141.418C202.143 141.496 202.082 141.558 202.005 141.591C195.016 144.685 192.852 146.957 193.174 148.055C193.496 149.153 196.511 150.013 204.1 149.109C214.565 147.707 224.794 144.912 234.512 140.8C241.496 137.719 243.659 135.441 243.344 134.336C243.029 133.232 240.013 132.385 232.418 133.288C232.334 133.298 232.25 133.275 232.184 133.223C232.118 133.171 232.075 133.095 232.065 133.012C232.055 132.929 232.078 132.845 232.13 132.779C232.182 132.713 232.259 132.671 232.342 132.661C236.392 132.178 243.281 131.738 243.95 134.167C244.618 136.596 238.48 139.727 234.758 141.365C224.979 145.518 214.682 148.338 204.144 149.75C202.281 149.976 200.406 150.096 198.53 150.107Z" fill="#ACCCF8"/>
<path d="M184.96 136.903C184.877 136.903 184.796 136.87 184.737 136.811C184.678 136.752 184.645 136.673 184.645 136.589V132.893C184.645 132.81 184.678 132.73 184.737 132.671C184.796 132.612 184.877 132.579 184.96 132.579C185.044 132.579 185.124 132.612 185.183 132.671C185.243 132.73 185.276 132.81 185.276 132.893V136.589C185.276 136.673 185.243 136.752 185.183 136.811C185.124 136.87 185.044 136.903 184.96 136.903Z" fill="#ACCCF8"/>
<path d="M186.853 135.052H183.137C183.054 135.052 182.973 135.019 182.914 134.96C182.855 134.901 182.822 134.821 182.822 134.738C182.823 134.655 182.857 134.576 182.916 134.518C182.975 134.459 183.054 134.426 183.137 134.424H186.853C186.936 134.424 187.017 134.457 187.076 134.516C187.135 134.575 187.168 134.655 187.168 134.738C187.168 134.821 187.135 134.901 187.076 134.96C187.017 135.019 186.936 135.052 186.853 135.052Z" fill="#ACCCF8"/>
<path d="M227.958 62.0396C227.874 62.0396 227.794 62.0066 227.735 61.9477C227.676 61.8889 227.643 61.8091 227.643 61.7258V58.0294C227.643 57.9462 227.676 57.8664 227.735 57.8075C227.794 57.7487 227.874 57.7156 227.958 57.7156C228.042 57.7156 228.122 57.7487 228.181 57.8075C228.24 57.8664 228.274 57.9462 228.274 58.0294V61.7258C228.274 61.8091 228.24 61.8889 228.181 61.9477C228.122 62.0066 228.042 62.0396 227.958 62.0396Z" fill="#ACCCF8"/>
<path d="M229.819 60.1952H226.103C226.02 60.1952 225.94 60.1621 225.88 60.1032C225.821 60.0443 225.788 59.9644 225.788 59.8811C225.788 59.7978 225.821 59.7179 225.88 59.659C225.94 59.6001 226.02 59.567 226.103 59.567H229.819C229.903 59.567 229.983 59.6001 230.042 59.659C230.101 59.7179 230.134 59.7978 230.134 59.8811C230.133 59.9639 230.099 60.0428 230.04 60.1014C229.981 60.16 229.902 60.1936 229.819 60.1952Z" fill="#ACCCF8"/>
<path d="M71.2903 143.066C71.2067 143.066 71.1265 143.033 71.0673 142.974C71.0082 142.915 70.9749 142.835 70.9749 142.752V139.056C70.9749 138.972 71.0082 138.893 71.0673 138.834C71.1265 138.775 71.2067 138.742 71.2903 138.742C71.374 138.742 71.4542 138.775 71.5134 138.834C71.5725 138.893 71.6058 138.972 71.6058 139.056V142.752C71.6058 142.835 71.5725 142.915 71.5134 142.974C71.4542 143.033 71.374 143.066 71.2903 143.066Z" fill="#ACCCF8"/>
<path d="M73.1451 141.222H69.4295C69.3463 141.22 69.267 141.186 69.2082 141.128C69.1494 141.069 69.1157 140.99 69.114 140.907C69.114 140.824 69.1473 140.744 69.2064 140.685C69.2656 140.626 69.3458 140.593 69.4295 140.593H73.1451C73.2287 140.593 73.3089 140.626 73.3681 140.685C73.4273 140.744 73.4605 140.824 73.4605 140.907C73.4605 140.991 73.4273 141.071 73.3681 141.13C73.3089 141.188 73.2287 141.222 73.1451 141.222Z" fill="#ACCCF8"/>
<path d="M108.743 63.891C108.66 63.891 108.579 63.8579 108.52 63.7991C108.461 63.7403 108.428 63.6604 108.428 63.5772V59.8808C108.428 59.7976 108.461 59.7178 108.52 59.6589C108.579 59.6001 108.66 59.567 108.743 59.567C108.827 59.567 108.907 59.6001 108.966 59.6589C109.025 59.7178 109.059 59.7976 109.059 59.8808V63.6086C109.051 63.6863 109.014 63.7582 108.956 63.8105C108.897 63.8627 108.822 63.8914 108.743 63.891Z" fill="#ACCCF8"/>
<path d="M110.598 62.0401H106.882C106.798 62.0401 106.718 62.0071 106.659 61.9482C106.6 61.8893 106.567 61.8094 106.567 61.7261C106.567 61.6428 106.6 61.5629 106.659 61.504C106.718 61.4451 106.798 61.412 106.882 61.412H110.598C110.681 61.412 110.761 61.4451 110.821 61.504C110.88 61.5629 110.913 61.6428 110.913 61.7261C110.913 61.8094 110.88 61.8893 110.821 61.9482C110.761 62.0071 110.681 62.0401 110.598 62.0401Z" fill="#ACCCF8"/>
</svg>
