<svg width="118" height="119" viewBox="0 0 118 119" fill="none" xmlns="http://www.w3.org/2000/svg">
<path d="M17.3984 33.3666C24.0086 33.3666 29.3673 27.9913 29.3673 21.3606C29.3673 14.7298 24.0086 9.35452 17.3984 9.35452C10.7882 9.35452 5.4295 14.7298 5.4295 21.3606C5.4295 27.9913 10.7882 33.3666 17.3984 33.3666Z" fill="#1264D1"/>
<path d="M70.0492 14.7202C68.0187 14.8725 65.499 15.2844 64.3628 13.5918C63.5923 12.4634 63.8004 10.6467 62.6755 9.87939C62.0005 9.43368 61.1231 9.54087 60.3188 9.57473C58.8449 9.71216 57.371 9.3115 56.1679 8.44634C55.043 7.52106 54.4412 5.8172 55.1274 4.49698C55.4894 3.87143 56.0275 3.36701 56.6741 3.047C58.564 2.01453 61.0894 2.07095 62.7092 3.48707C64.0591 4.6606 64.734 6.64656 66.3933 7.31231C67.445 7.73546 68.6431 7.50978 69.7679 7.46464C70.8928 7.41951 72.1977 7.66775 72.7602 8.65509C73.2607 9.52395 72.9908 10.658 73.3957 11.572C73.9582 12.8358 75.5049 13.2194 76.7142 13.8852C77.9234 14.5509 79.9033 16.3789 79.7795 17.9586C79.6558 19.5384 78.0247 20.2154 76.7367 19.2281C75.9043 18.6018 75.848 17.1575 75.1899 16.362C73.9188 14.8725 71.894 14.5791 70.0492 14.7202Z" fill="white"/>
<path d="M77.9742 19.9844C77.4538 19.9759 76.9503 19.7976 76.5399 19.4766C76.0483 19.0219 75.6986 18.434 75.5331 17.784C75.4128 17.3516 75.2228 16.9419 74.9707 16.571C73.9752 15.3636 72.3328 14.8389 70.0942 15.0025L69.4924 15.0533C67.5126 15.2226 65.2684 15.4144 64.1492 13.7444C63.8366 13.2077 63.616 12.6222 63.4967 12.0123C63.2999 11.2337 63.1086 10.5003 62.5237 10.111C61.9279 9.82307 61.2576 9.72842 60.6057 9.84016H60.3358C59.0928 9.89658 57.3267 9.73861 55.9937 8.66664C54.835 7.72443 54.0982 5.84567 54.8688 4.38441C55.263 3.70474 55.8505 3.15861 56.5561 2.81595C57.5409 2.25035 58.6718 1.99325 59.8035 2.07771C60.9351 2.16216 62.0157 2.58432 62.9062 3.28987C63.4422 3.79879 63.9195 4.36655 64.3292 4.98245C64.9703 5.86824 65.5778 6.67503 66.5115 7.08125C67.316 7.32877 68.1663 7.3886 68.9975 7.25615C69.2506 7.25615 69.5037 7.21666 69.7568 7.21102C70.6679 7.17153 72.2934 7.30129 73.0077 8.54251C73.257 9.05835 73.3914 9.62244 73.4014 10.1956C73.4131 10.6374 73.4987 11.0742 73.6545 11.4876C74.0314 12.3395 74.9369 12.757 75.9043 13.1802C76.2249 13.3269 76.5512 13.4792 76.8549 13.6428C78.2273 14.3988 80.1958 16.3002 80.0665 17.9871C80.0465 18.3674 79.9239 18.7352 79.712 19.0511C79.5 19.3671 79.2065 19.6194 78.8628 19.7813C78.5857 19.9155 78.2819 19.9849 77.9742 19.9844ZM70.8367 14.4045C72.8502 14.4045 74.4139 15.0195 75.3869 16.2043C75.6896 16.6329 75.9178 17.1098 76.0618 17.6148C76.1961 18.1606 76.4784 18.6586 76.8774 19.0535C77.1137 19.2495 77.3988 19.3773 77.702 19.423C78.0052 19.4687 78.3152 19.4307 78.5985 19.313C78.8513 19.1938 79.0665 19.007 79.2203 18.773C79.3741 18.5391 79.4606 18.2672 79.4703 17.9871C79.5771 16.6274 77.811 14.8728 76.5512 14.1845C76.2587 14.0208 75.9437 13.8798 75.6344 13.7331C74.622 13.2705 73.5758 12.7853 73.109 11.7359C72.9298 11.2667 72.8291 10.771 72.8109 10.2689C72.809 9.77539 72.6996 9.28821 72.4903 8.84154C71.9278 7.82599 70.3811 7.76957 69.7512 7.79778C69.5037 7.79778 69.2562 7.82599 69.0143 7.84292C68.0966 7.98244 67.1591 7.90714 66.2752 7.62288C65.1897 7.18845 64.5091 6.24625 63.8455 5.3379C63.4613 4.75964 63.0142 4.22602 62.5124 3.74687C61.067 2.49436 58.6653 2.31946 56.7923 3.34629C56.1992 3.62791 55.7008 4.0769 55.3581 4.63829C54.7113 5.86259 55.3581 7.41977 56.3255 8.21528C57.5179 9.18006 59.1378 9.34367 60.2908 9.26468H60.5551C61.3243 9.14198 62.1124 9.26847 62.8049 9.62577C63.5755 10.1335 63.8004 11.0137 64.0142 11.8825C64.1154 12.4272 64.3055 12.9514 64.5766 13.4341C65.5103 14.8333 67.5801 14.6527 69.4024 14.5004L70.0155 14.4496C70.3024 14.4158 70.5723 14.4045 70.8367 14.4045Z" fill="#ACCCF8"/>
<path d="M86.827 12.0682C86.0837 11.5758 85.4551 10.9282 84.9843 10.1697C84.5135 9.41113 84.2116 8.55956 84.0991 7.67317C84.1035 6.87901 83.9761 6.08964 83.7223 5.33741C83.3454 4.5419 82.5242 4.01155 82.1755 3.19911C81.9617 2.70754 81.942 2.15286 82.1203 1.64725C82.2987 1.14164 82.6618 0.72285 83.1362 0.475572C83.6107 0.228294 84.161 0.170989 84.676 0.315248C85.191 0.459507 85.6321 0.794561 85.9102 1.25264C86.1913 1.8065 86.3614 2.41031 86.4108 3.02986C86.5327 4.26357 87.0339 5.42877 87.845 6.36424C89.1105 7.62239 91.349 7.98912 91.9059 9.68734C92.1646 10.4885 91.9059 11.3799 92.1984 12.1867C92.4698 12.7588 92.8522 13.271 93.3233 13.6931C94.2175 14.7538 95.4043 17.1686 94.7294 18.6016C94.0544 20.0347 92.2883 20.0629 91.4334 18.6919C90.871 17.8117 91.3434 16.4351 91.0172 15.459C90.3816 13.5746 88.8687 13.0725 87.2826 12.2996C87.1476 12.2375 86.9732 12.1529 86.827 12.0682Z" fill="white"/>
<path d="M93.0814 19.9784C92.6946 19.9702 92.3164 19.862 91.9834 19.6643C91.6503 19.4667 91.3738 19.1862 91.1804 18.85C90.8849 18.2489 90.7696 17.5747 90.8485 16.9091C90.8801 16.4565 90.8422 16.0018 90.736 15.5607C90.213 14.0092 89.0487 13.4619 87.6988 12.83L87.1364 12.5649C86.9789 12.4859 86.827 12.4012 86.6752 12.3053C85.8959 11.7916 85.237 11.1145 84.7437 10.3206C84.2504 9.52683 83.9346 8.63519 83.8179 7.70714C83.7898 7.48711 83.7729 7.26707 83.7617 7.0414C83.7616 6.50076 83.6605 5.96493 83.4636 5.46165C83.273 5.10869 83.0345 4.78399 82.7549 4.49688C82.4093 4.15145 82.1258 3.74871 81.9169 3.30643C81.6905 2.75196 81.6793 2.13258 81.8855 1.57024C82.0916 1.00791 82.5002 0.543363 83.0307 0.268079C83.5612 -0.00720519 84.1753 -0.0732842 84.7519 0.0828561C85.3286 0.238996 85.8261 0.606041 86.1465 1.11172C86.4256 1.6366 86.5976 2.21199 86.6527 2.8043L86.6808 2.99049C86.8383 3.93269 87.1476 5.28675 88.0363 6.16689C88.5457 6.61723 89.1133 6.99676 89.7236 7.29528C90.736 7.85948 91.7878 8.42367 92.159 9.58591C92.2775 10.0155 92.3306 10.4606 92.3165 10.9061C92.2997 11.302 92.3453 11.698 92.4515 12.0796C92.6149 12.478 92.8624 12.836 93.1771 13.1291L93.5089 13.5014C94.5213 14.6975 95.68 17.18 94.9544 18.7089C94.8013 19.0574 94.5566 19.3576 94.2465 19.5772C93.9364 19.7969 93.5725 19.9277 93.1939 19.9558L93.0814 19.9784ZM84.0823 0.558809C83.8086 0.5559 83.5384 0.619796 83.2948 0.744991C82.8987 0.969992 82.596 1.32972 82.4412 1.75914C82.2865 2.18857 82.29 2.65935 82.4512 3.0864C82.642 3.46821 82.8926 3.8168 83.1936 4.11887C83.5151 4.45238 83.7844 4.83282 83.9923 5.24726C84.2156 5.80727 84.332 6.4044 84.3354 7.00754C84.3354 7.2163 84.3354 7.43069 84.386 7.63944C84.4918 8.48415 84.7789 9.29581 85.2275 10.0185C85.6761 10.7412 86.2755 11.3578 86.9845 11.8258C87.1195 11.9104 87.2545 11.9837 87.3951 12.0571L87.9575 12.3166C89.3637 12.9767 90.6854 13.603 91.2816 15.3858C91.416 15.8855 91.4654 16.4043 91.4278 16.9204C91.357 17.4759 91.4407 18.0402 91.6697 18.551C91.8203 18.82 92.0414 19.0427 92.3091 19.1948C92.5767 19.347 92.8808 19.4228 93.1883 19.4142C93.4643 19.3914 93.7288 19.2931 93.9529 19.1299C94.1771 18.9668 94.3523 18.745 94.4594 18.4889C95.0219 17.2589 94.0207 14.9852 93.0871 13.8907C92.9858 13.7609 92.879 13.6481 92.7721 13.5353C92.4041 13.1871 92.1179 12.7612 91.9341 12.2884C91.8035 11.8495 91.7464 11.392 91.7653 10.9343C91.7786 10.5538 91.735 10.1735 91.636 9.80595C91.3322 8.87503 90.4211 8.36725 89.4593 7.83127C88.8007 7.50689 88.191 7.09093 87.6482 6.59568C86.6414 5.6027 86.3039 4.13016 86.1352 3.10897L86.1015 2.92278C86.0567 2.40245 85.9095 1.89619 85.6684 1.43331C85.4957 1.16439 85.2584 0.943348 84.9783 0.790531C84.6982 0.637713 84.3843 0.558028 84.0654 0.558809H84.0823Z" fill="#ACCCF8"/>
<path d="M6.63872 46.9638H4.41705V50.0443H6.63872V46.9638Z" fill="#093269"/>
<path d="M6.63313 50.3376H4.41709C4.3425 50.3376 4.27097 50.3079 4.21823 50.255C4.16549 50.2021 4.13586 50.1303 4.13586 50.0555V46.9524C4.13586 46.8776 4.16549 46.8059 4.21823 46.753C4.27097 46.7001 4.3425 46.6703 4.41709 46.6703H6.63313C6.70772 46.6703 6.77925 46.7001 6.83199 46.753C6.88473 46.8059 6.91436 46.8776 6.91436 46.9524V50.0386C6.91666 50.077 6.91109 50.1155 6.89799 50.1517C6.8849 50.1879 6.86455 50.2211 6.8382 50.2491C6.81185 50.2771 6.78006 50.2994 6.7448 50.3146C6.70953 50.3298 6.67153 50.3377 6.63313 50.3376ZM4.69831 49.7734H6.35191V47.2515H4.69831V49.7734Z" fill="#093269"/>
<path d="M7.00432 46.1006H4.04584V46.9695H7.00432V46.1006Z" fill="white"/>
<path d="M7.00435 47.2459H4.04587C3.97129 47.2459 3.89976 47.2162 3.84702 47.1633C3.79428 47.1104 3.76465 47.0386 3.76465 46.9638V46.1006C3.76465 46.0258 3.79428 45.954 3.84702 45.9011C3.89976 45.8482 3.97129 45.8185 4.04587 45.8185H7.00435C7.07894 45.8185 7.15047 45.8482 7.20321 45.9011C7.25595 45.954 7.28558 46.0258 7.28558 46.1006V46.9525C7.28709 46.9905 7.28094 47.0284 7.26748 47.064C7.25403 47.0995 7.23356 47.132 7.20729 47.1594C7.18103 47.1868 7.14951 47.2085 7.11463 47.2234C7.07976 47.2383 7.04225 47.246 7.00435 47.2459ZM4.3271 46.6817H6.7175V46.3883H4.32147L4.3271 46.6817Z" fill="#093269"/>
<path d="M114.094 24.3284H84.4816V59.8388H114.094V24.3284Z" fill="white"/>
<path d="M114.1 60.1207H84.4816C84.407 60.1207 84.3355 60.091 84.2828 60.0381C84.23 59.9852 84.2004 59.9134 84.2004 59.8386V24.3282C84.2004 24.2534 84.23 24.1817 84.2828 24.1288C84.3355 24.0758 84.407 24.0461 84.4816 24.0461H114.1C114.175 24.0461 114.246 24.0758 114.299 24.1288C114.352 24.1817 114.381 24.2534 114.381 24.3282V59.8386C114.381 59.9134 114.352 59.9852 114.299 60.0381C114.246 60.091 114.175 60.1207 114.1 60.1207ZM84.7628 59.5565H113.819V24.6103H84.7628V59.5565Z" fill="#093269"/>
<path d="M47.585 59.8386H17.3984V16.4183L47.585 24.4355V59.8386Z" fill="#093269"/>
<path d="M47.585 60.1207H17.404C17.3295 60.1207 17.2579 60.091 17.2052 60.0381C17.1524 59.9852 17.1228 59.9134 17.1228 59.8386V16.3957C17.1209 16.3524 17.1294 16.3092 17.1476 16.2699C17.1658 16.2306 17.1931 16.1962 17.2273 16.1697C17.2614 16.1431 17.3015 16.1252 17.344 16.1174C17.3865 16.1096 17.4302 16.1122 17.4715 16.1248L47.6638 24.1364C47.7242 24.1527 47.7774 24.1887 47.8151 24.2388C47.8528 24.2889 47.8728 24.3501 47.8719 24.4129V59.816C47.875 59.8554 47.8699 59.895 47.8568 59.9323C47.8438 59.9695 47.8231 60.0036 47.796 60.0324C47.769 60.0611 47.7362 60.0838 47.6999 60.099C47.6635 60.1142 47.6244 60.1216 47.585 60.1207ZM17.6796 59.5565H47.3038V24.6498L17.6796 16.785V59.5565Z" fill="#093269"/>
<path d="M53.89 43.9737V32.2836L29.4291 43.8101V59.489H79.1214V32.2836L53.89 43.9737Z" fill="white"/>
<path d="M79.1215 59.7653H29.4292C29.3546 59.7653 29.2831 59.7356 29.2303 59.6827C29.1776 59.6298 29.148 59.558 29.148 59.4832V43.8099C29.1477 43.7563 29.1629 43.7037 29.1919 43.6586C29.2208 43.6136 29.2623 43.5779 29.3111 43.556L53.7663 32.0295C53.8074 32.0058 53.8539 31.9932 53.9013 31.9932C53.9487 31.9932 53.9952 32.0058 54.0363 32.0295C54.0773 32.0539 54.1113 32.0886 54.135 32.1301C54.1586 32.1717 54.1711 32.2186 54.1713 32.2665V43.5165L79.0034 32.0126C79.0449 31.9904 79.0913 31.9787 79.1383 31.9787C79.1854 31.9787 79.2318 31.9904 79.2733 32.0126C79.3137 32.0373 79.3469 32.0722 79.3696 32.1137C79.3923 32.1553 79.4037 32.2022 79.4027 32.2496V59.4493C79.4075 59.4891 79.4038 59.5295 79.3918 59.5677C79.3798 59.606 79.3599 59.6412 79.3333 59.6711C79.3067 59.701 79.274 59.7248 79.2375 59.7411C79.201 59.7573 79.1614 59.7656 79.1215 59.7653ZM29.7104 59.2011H78.8403V32.7235L54.0082 44.2274C53.9666 44.2496 53.9203 44.2612 53.8732 44.2612C53.8261 44.2612 53.7797 44.2496 53.7382 44.2274C53.6978 44.2027 53.6646 44.1678 53.6419 44.1263C53.6192 44.0847 53.6078 44.0378 53.6088 43.9904V32.7291L29.7104 44.013V59.2011Z" fill="#093269"/>
<path d="M74.0313 46.5292H59.0252V59.3985H74.0313V46.5292Z" fill="#093269"/>
<path d="M74.0313 59.6806H59.0252C58.9506 59.6806 58.8791 59.6509 58.8263 59.598C58.7736 59.5451 58.744 59.4734 58.744 59.3985V46.5293C58.744 46.4545 58.7736 46.3827 58.8263 46.3298C58.8791 46.2769 58.9506 46.2472 59.0252 46.2472H74.0313C74.1059 46.2472 74.1774 46.2769 74.2302 46.3298C74.2829 46.3827 74.3125 46.4545 74.3125 46.5293V59.3985C74.3125 59.4734 74.2829 59.5451 74.2302 59.598C74.1774 59.6509 74.1059 59.6806 74.0313 59.6806ZM59.3064 59.1165H73.7501V46.8114H59.3064V59.1165Z" fill="#093269"/>
<path d="M74.2338 17.5522H80.8369L82.7043 54.4336H72.3665L74.2338 17.5522Z" fill="#1264D1"/>
<path d="M81.0225 14.9686H74.0482C73.5046 14.9686 73.0639 15.4106 73.0639 15.9559V16.5653C73.0639 17.1106 73.5046 17.5526 74.0482 17.5526H81.0225C81.5662 17.5526 82.0068 17.1106 82.0068 16.5653V15.9559C82.0068 15.4106 81.5662 14.9686 81.0225 14.9686Z" fill="#093269"/>
<path d="M81.0226 17.8344H74.0482C73.7126 17.8344 73.3907 17.7007 73.1534 17.4626C72.916 17.2246 72.7827 16.9017 72.7827 16.565V15.9613C72.7827 15.6241 72.9159 15.3006 73.153 15.0617C73.3902 14.8227 73.7121 14.6877 74.0482 14.6862H81.0226C81.3587 14.6877 81.6806 14.8227 81.9178 15.0617C82.1549 15.3006 82.2881 15.6241 82.2881 15.9613V16.565C82.2881 16.9017 82.1548 17.2246 81.9174 17.4626C81.6801 17.7007 81.3582 17.8344 81.0226 17.8344ZM74.0482 15.2504C73.8612 15.2519 73.6824 15.3275 73.5507 15.4606C73.419 15.5938 73.3452 15.7737 73.3452 15.9613V16.565C73.3452 16.752 73.4192 16.9314 73.5511 17.0637C73.6829 17.1959 73.8618 17.2702 74.0482 17.2702H81.0226C81.209 17.2702 81.3879 17.1959 81.5197 17.0637C81.6516 16.9314 81.7256 16.752 81.7256 16.565V15.9613C81.7256 15.7737 81.6517 15.5938 81.5201 15.4606C81.3884 15.3275 81.2096 15.2519 81.0226 15.2504H74.0482Z" fill="#093269"/>
<path d="M88.4525 17.5522H95.0556L96.9229 54.4336H86.5851L88.4525 17.5522Z" fill="#1264D1"/>
<path d="M95.2412 14.9686H88.2669C87.7233 14.9686 87.2826 15.4106 87.2826 15.9559V16.5653C87.2826 17.1106 87.7233 17.5526 88.2669 17.5526H95.2412C95.7848 17.5526 96.2255 17.1106 96.2255 16.5653V15.9559C96.2255 15.4106 95.7848 14.9686 95.2412 14.9686Z" fill="#093269"/>
<path d="M95.2412 17.8344H88.2725C87.9368 17.8344 87.6149 17.7007 87.3776 17.4626C87.1403 17.2246 87.007 16.9017 87.007 16.565V15.9613C87.007 15.6241 87.1401 15.3006 87.3773 15.0617C87.6144 14.8227 87.9363 14.6877 88.2725 14.6862H95.2468C95.583 14.6877 95.9049 14.8227 96.142 15.0617C96.3792 15.3006 96.5123 15.6241 96.5123 15.9613V16.565C96.5123 16.7322 96.4794 16.8977 96.4155 17.0521C96.3515 17.2065 96.2578 17.3467 96.1397 17.4646C96.0216 17.5826 95.8814 17.676 95.7272 17.7394C95.573 17.8029 95.4079 17.8352 95.2412 17.8344ZM88.2725 15.2504C88.0855 15.2519 87.9067 15.3275 87.775 15.4606C87.6433 15.5938 87.5694 15.7737 87.5694 15.9613V16.565C87.5694 16.752 87.6435 16.9314 87.7753 17.0637C87.9072 17.1959 88.086 17.2702 88.2725 17.2702H95.2468C95.4333 17.2702 95.6121 17.1959 95.744 17.0637C95.8758 16.9314 95.9499 16.752 95.9499 16.565V15.9613C95.9499 15.7737 95.876 15.5938 95.7443 15.4606C95.6126 15.3275 95.4338 15.2519 95.2468 15.2504H88.2725Z" fill="#093269"/>
<path d="M67.7769 54.4337H100.596L102.952 59.4888H65.4202L67.7769 54.4337Z" fill="white"/>
<path d="M102.952 59.7654H65.4202C65.3729 59.7664 65.3262 59.7549 65.2848 59.7321C65.2433 59.7093 65.2086 59.6761 65.184 59.6356C65.1618 59.5939 65.1502 59.5474 65.1502 59.5002C65.1502 59.453 65.1618 59.4064 65.184 59.3648L67.5406 54.3152C67.5624 54.2663 67.598 54.2247 67.6429 54.1957C67.6879 54.1666 67.7403 54.1513 67.7937 54.1516H100.613C100.667 54.1516 100.72 54.167 100.766 54.196C100.811 54.2249 100.848 54.2663 100.871 54.3152L103.222 59.3648C103.247 59.4055 103.26 59.4524 103.26 59.5002C103.26 59.548 103.247 59.5948 103.222 59.6356C103.195 59.6815 103.155 59.7183 103.107 59.7414C103.059 59.7645 103.005 59.7729 102.952 59.7654ZM65.8645 59.2012H102.514L100.416 54.6876H67.9568L65.8645 59.2012Z" fill="#093269"/>
<path d="M0.564333 59.6975C0.564333 59.7314 0.564333 59.7653 0.564333 59.7991C0.563828 61.929 0.680245 64.0574 0.913052 66.1745C0.924166 66.4225 0.952356 66.6695 0.99742 66.9136C1.43747 70.5665 2.2228 74.1691 3.34283 77.6728L3.6803 78.6827C3.80404 79.0494 3.9334 79.4161 4.05714 79.7772C4.18087 80.1383 4.28774 80.3809 4.40023 80.6799C4.51272 80.9789 4.64208 81.3175 4.7602 81.6278C4.78616 81.675 4.80872 81.724 4.82769 81.7745C5.0133 82.254 5.2214 82.7336 5.42389 83.2019C5.5195 83.4332 5.62075 83.6589 5.72199 83.8845L6.0932 84.68C6.22069 84.9621 6.35568 85.2442 6.49816 85.5263C6.90313 86.3689 7.33059 87.1964 7.78055 88.0088C7.90803 88.2495 8.04302 88.4921 8.18551 88.7366C8.298 88.9341 8.40486 89.1372 8.52298 89.329C8.79295 89.7973 9.08542 90.2599 9.36102 90.7226C9.51851 90.9821 9.676 91.236 9.84473 91.4899C10.0135 91.7438 10.2666 92.1443 10.4859 92.4659C11.5169 94.0137 12.6244 95.5089 13.8044 96.9456L14.2543 97.5098L14.6255 97.9555L15.1317 98.5197C15.593 99.0501 16.0654 99.5635 16.5435 100.071L17.2634 100.822L17.9609 101.527L18.7427 102.289C19.0689 102.599 19.4007 102.909 19.7382 103.214C20.0757 103.518 20.3513 103.778 20.6719 104.049C20.9925 104.32 21.4537 104.72 21.853 105.053C29.9743 111.76 39.7482 116.146 50.1455 117.748C60.5428 119.351 71.1786 118.112 80.9328 114.161C90.687 110.211 99.1985 103.694 105.571 95.2988C111.944 86.9034 115.941 76.9395 117.143 66.4566C117.205 65.8924 117.255 65.3282 117.306 64.7922C117.329 64.5665 117.345 64.3409 117.357 64.1152C117.354 64.072 117.354 64.0286 117.357 63.9854C117.383 63.6093 117.405 63.2426 117.424 62.8852C117.458 62.2816 117.48 61.6722 117.486 61.0629C117.486 60.6454 117.486 60.2223 117.486 59.7991C117.489 59.7653 117.489 59.7313 117.486 59.6975H0.564333Z" fill="white"/>
<path d="M117.48 59.6977C117.483 59.7315 117.483 59.7654 117.48 59.7992C117.48 60.2224 117.48 60.6455 117.48 61.063C117.48 61.6723 117.452 62.2817 117.419 62.8854C117.419 63.2615 117.396 63.6282 117.351 63.9855C117.348 64.0287 117.348 64.0721 117.351 64.1153C117.351 64.341 117.334 64.5667 117.3 64.7923C117.25 65.3565 117.199 65.9207 117.137 66.4567C115.939 76.9436 111.943 86.9122 105.57 95.3118C99.1976 103.711 90.684 110.231 80.9267 114.184C71.1694 118.136 60.5298 119.375 50.1293 117.77C39.7287 116.166 29.9524 111.776 21.8305 105.064C21.4311 104.732 21.0318 104.399 20.6493 104.06C20.2669 103.722 20.025 103.496 19.7157 103.225C19.4063 102.954 19.0464 102.61 18.7201 102.3L17.9665 101.527L17.269 100.822L16.5491 100.071C16.071 99.5636 15.5986 99.0502 15.1374 98.5198L14.6311 97.9557L14.2599 97.5099L13.81 96.9457C12.63 95.509 11.5225 94.0139 10.4915 92.466C10.2722 92.1445 10.0584 91.8172 9.85034 91.49C9.64223 91.1628 9.52411 90.9822 9.36663 90.7227C9.07978 90.2601 8.80418 89.7974 8.52858 89.3291C8.41047 89.1373 8.3036 88.9342 8.19111 88.7367C8.07862 88.5393 7.91551 88.2515 7.78615 88.0089C7.33619 87.1965 6.90873 86.369 6.50377 85.5265C6.36503 85.2444 6.23004 84.9623 6.09881 84.6802L5.72759 83.8847C5.62635 83.659 5.52511 83.4333 5.42949 83.202C5.22701 82.7337 5.0189 82.2541 4.8333 81.7746C4.81432 81.7241 4.79176 81.6751 4.7658 81.6279C4.64769 81.3176 4.52395 81.0016 4.40583 80.68C4.28772 80.3584 4.17523 80.082 4.06274 79.7773C3.95025 79.4727 3.80964 79.0495 3.6859 78.6828L3.34843 77.6729C2.23413 74.1686 1.45444 70.566 1.0199 66.9137C0.974833 66.6696 0.946643 66.4226 0.93553 66.1746C0.702722 64.0575 0.586305 61.9292 0.58681 59.7992C0.58681 59.7654 0.58681 59.7315 0.58681 59.6977H117.48ZM117.48 59.1335H0.564312C0.421718 59.1331 0.284316 59.1871 0.179898 59.2845C0.075481 59.3819 0.0118444 59.5155 0.00186323 59.6582C-0.000621075 59.7052 -0.000621075 59.7522 0.00186323 59.7992C0.00213871 61.9498 0.11855 64.0987 0.350583 66.2367C0.367345 66.4938 0.397381 66.7499 0.440572 67.004C0.873941 70.6852 1.65744 74.3163 2.78036 77.8478C2.88722 78.1863 3.00534 78.5305 3.11783 78.8633C3.23032 79.1962 3.37093 79.6024 3.50029 79.9917C3.62966 80.381 3.71965 80.5559 3.82089 80.8493V80.9057C3.939 81.2273 4.06274 81.5489 4.19211 81.8592C4.19211 81.9213 4.2371 81.9608 4.24835 81.9946C4.42271 82.4403 4.61394 82.8973 4.8558 83.4502C4.94579 83.6703 5.04703 83.9016 5.16514 84.1498C5.28325 84.3981 5.40699 84.6802 5.53073 84.9453C5.65447 85.2105 5.80071 85.5095 5.94132 85.8029C6.35191 86.6549 6.79062 87.4955 7.23495 88.3079C7.36431 88.5449 7.4993 88.7932 7.64554 89.0414L7.71303 89.1655C7.80865 89.3291 7.89864 89.4927 7.99425 89.6507C8.27548 90.1416 8.5567 90.6324 8.8323 91.0443L8.95604 91.2474L9.31601 91.8116C9.54661 92.1783 9.76034 92.4999 9.96845 92.8046C11.0034 94.3505 12.1339 95.8738 13.3431 97.3181L13.7987 97.8823C13.9168 98.029 14.0462 98.1757 14.1699 98.3224C14.2937 98.4691 14.5187 98.7342 14.6986 98.9317C15.1598 99.4621 15.6267 99.9755 16.116 100.489C16.3522 100.743 16.5941 100.997 16.8416 101.245C17.089 101.493 17.3084 101.73 17.5503 101.961C17.7921 102.193 18.0677 102.475 18.3264 102.723L18.5739 102.954L19.3388 103.665C19.6482 103.947 19.9575 104.229 20.2781 104.5C20.5987 104.771 21.0656 105.183 21.4705 105.516C29.6702 112.28 39.5358 116.701 50.0292 118.315C60.5226 119.93 71.2557 118.677 81.0991 114.688C90.9425 110.7 99.5322 104.124 105.964 95.6521C112.396 87.1803 116.433 77.1259 117.649 66.547C117.722 65.9151 117.773 65.3791 117.812 64.8544C117.812 64.6344 117.852 64.403 117.869 64.1774V64.1322C117.871 64.1154 117.871 64.0983 117.869 64.0815C117.871 64.0703 117.871 64.0587 117.869 64.0476C117.897 63.6752 117.914 63.3029 117.93 62.9192C117.964 62.3155 117.987 61.6949 117.998 61.0799C117.998 60.6624 117.998 60.2337 117.998 59.8049C118.001 59.7522 118.001 59.6995 117.998 59.6469C117.984 59.5072 117.919 59.3778 117.815 59.2839C117.711 59.1901 117.575 59.1384 117.435 59.1391L117.48 59.1335Z" fill="#093269"/>
<path d="M92.7721 61.2436C92.4537 61.0488 92.2176 60.7437 92.1084 60.386C92.041 60.1625 92.0032 59.9311 91.9959 59.6977H91.366C91.1315 59.9506 90.931 60.2332 90.7698 60.5383C90.3255 61.4354 89.5999 60.8881 89.0037 61.001C88.9418 60.6286 88.8856 60.2562 88.8068 59.8726C88.8068 59.8105 88.8068 59.7541 88.7731 59.6864H88.2106L88.1544 59.8275L88.0869 59.6864H79.0315C79.2227 60.1039 79.414 60.5271 79.5939 60.9446C79.892 61.6329 80.1564 62.3268 80.432 63.0264C80.6232 63.5342 80.702 64.0871 80.9326 64.5611C81.2368 65.1096 81.5769 65.6373 81.9506 66.1408C82.2929 66.6501 82.5495 67.2124 82.7099 67.8052C82.9548 68.9232 83.1426 70.0531 83.2723 71.1903C83.3792 71.7997 83.6379 72.0253 84.1948 71.7545C85.1967 71.2898 86.1713 70.768 87.1139 70.1917C88.1094 69.5429 88.9475 68.6458 89.9767 68.0478C90.4648 67.767 90.9362 67.4581 91.3885 67.1225C91.7833 66.8176 92.1335 66.4586 92.429 66.0562C92.5977 65.8079 92.7327 65.5315 92.8958 65.2719C93.034 64.9914 93.2018 64.7266 93.3964 64.4821C94.5719 63.1619 94.3357 62.0165 92.7721 61.2436Z" fill="#ACCCF8"/>
<path d="M93.267 59.6975C93.5806 59.7731 93.9009 59.8166 94.2232 59.8273C95.6743 59.9176 97.1367 59.8273 98.4359 59.8273C99.2571 60.7639 100.039 61.6666 100.821 62.5524L100.14 62.8345L101.709 64.1998L102.519 63.2125C102.66 63.9572 102.789 64.7527 102.93 65.5708C103.149 66.9136 103.408 68.3354 103.762 69.7233C104.253 71.996 104.971 74.2133 105.905 76.3413C107.267 74.7392 107.944 72.6634 107.789 70.5639C107.713 70.0477 107.781 69.5203 107.986 69.0406C108.487 68.2959 109.319 67.7655 109.803 67.0095C110.551 65.836 112.019 65.2323 112.306 63.6977C112.351 63.5059 112.767 63.314 113.043 63.2463C113.802 63.0432 114.584 62.9135 115.377 62.7442C115.477 63.3339 115.667 63.9047 115.939 64.4368C116.415 65.0582 116.812 65.7367 117.12 66.4566C117.182 65.8924 117.233 65.3282 117.284 64.7922C117.306 64.5665 117.323 64.3409 117.334 64.1152C117.331 64.072 117.331 64.0286 117.334 63.9854C117.36 63.6093 117.383 63.2426 117.402 62.8852C117.435 62.2816 117.458 61.6722 117.464 61.0629C117.464 60.6454 117.464 60.2223 117.464 59.7991C117.466 59.7653 117.466 59.7313 117.464 59.6975H93.267Z" fill="#ACCCF8"/>
<path d="M21.8249 105.064C22.0047 104.694 22.1207 104.295 22.168 103.885C22.2355 102.892 22.5617 102.227 23.3829 101.849C24.3447 101.408 25.3683 101.115 26.3582 100.72C26.5902 100.66 26.7971 100.528 26.9488 100.342C27.4573 99.5333 27.8617 98.6632 28.1524 97.7525C28.3757 96.4818 28.5222 95.1988 28.5911 93.9103C28.5824 93.7698 28.6115 93.6295 28.6755 93.5041C29.1817 92.844 29.761 92.2347 30.2166 91.5351C30.6722 90.8355 31.4146 89.9215 31.4653 89.0808C31.4949 88.8356 31.474 88.5869 31.404 88.3501C31.3339 88.1133 31.2162 87.8934 31.058 87.7041C30.8998 87.5148 30.7046 87.36 30.4844 87.2494C30.2643 87.1388 30.0238 87.0747 29.7779 87.061C29.6069 87.0133 29.4602 86.9024 29.3673 86.7507C28.2424 85.2048 26.5551 85.549 24.9746 85.5208C25.1096 84.855 24.7721 84.6406 24.0859 84.4827C22.4773 84.1103 21.1893 83.3543 20.7112 81.5319C20.2219 79.608 19.277 79.0664 17.2803 78.9592C16.6767 78.8363 16.1138 78.5627 15.6436 78.1637C15.2611 77.8534 14.9124 77.5036 14.6031 77.1199C14.4501 76.9148 14.2767 76.7257 14.0856 76.5557C13.5232 76.1721 13.1294 75.354 12.3983 75.512C11.6671 75.67 10.8346 75.8787 10.0528 75.512C9.27104 75.1453 8.6411 74.8462 7.80305 74.4457C7.59495 75.0098 7.31935 75.7772 7.02687 76.5896C6.46443 75.7489 7.02687 74.9252 7.15623 74.0507C5.60388 75.0155 3.78154 75.5628 3.44408 77.6954L3.34283 77.6334C6.75075 88.3671 13.1669 97.89 21.8249 105.064Z" fill="#ACCCF8"/>
<path d="M83.5536 75.2469C83.3286 74.8576 83.3567 74.2877 83.0868 73.9549C82.5806 73.3399 81.9112 72.8603 81.3544 72.2623C81.0349 71.9644 80.7836 71.6006 80.6176 71.196C80.162 69.7968 79.1215 68.6853 78.9584 67.0999C78.8571 66.1239 77.9572 65.2494 77.5129 64.279C76.9524 63.0792 76.4585 61.8493 76.0337 60.5948C75.7299 59.6751 75.2125 59.7541 74.4813 59.9516C73.9385 60.136 73.3578 60.1787 72.7939 60.0757C72.3609 59.9629 71.9334 59.8275 71.5059 59.6751H67.8556C67.8278 59.7709 67.8089 59.8692 67.7994 59.9685C67.7375 60.6625 67.4394 61.0405 66.7814 60.5327C66.2189 60.1152 65.3246 60.2111 64.8522 59.6582H48.0968C48.0354 59.8591 48.0069 60.0687 48.0125 60.2788C48.0125 61.5708 47.3319 62.0222 46.3251 62.3381C46.0633 62.4108 45.8334 62.5698 45.6727 62.7895C45.0709 63.7712 44.469 64.7585 43.9853 65.791C43.6197 66.5132 42.9561 67.1281 43.6254 68.1888C43.9659 68.9704 43.9921 69.8538 43.6985 70.6543C43.3936 71.7049 43.3037 72.8065 43.4341 73.8928C43.4341 74.1241 43.6816 74.3554 43.8447 74.5586C44.0078 74.7617 44.2328 74.8576 44.3678 75.0438C44.9198 75.9728 45.5323 76.8643 46.2014 77.7124C46.9688 78.4443 47.7803 79.1282 48.6312 79.7604C48.8529 79.9548 49.1259 80.0807 49.4174 80.1227C49.7088 80.1648 50.0062 80.1212 50.2735 79.9974C51.1464 79.8273 52.0334 79.7404 52.9226 79.7379C53.2646 79.7243 53.6041 79.6732 53.9351 79.5855C54.6113 79.3007 55.3023 79.0521 56.0049 78.8408C56.7079 78.6941 57.6922 78.2484 57.9959 79.3091C58.294 80.2682 58.834 80.2344 59.5989 80.161C59.7996 80.1401 60.0023 80.1647 60.1922 80.2331C60.382 80.3014 60.5541 80.4118 60.6957 80.5559C60.9739 81.0114 61.0741 81.5541 60.9769 82.0793C60.5157 83.6364 60.5044 84.9397 61.7756 86.243C62.3083 86.8154 62.7165 87.4927 62.9741 88.2318C63.2316 88.971 63.333 89.7559 63.2717 90.5365C63.2561 90.7497 63.3115 90.9621 63.4292 91.1402C63.941 91.8398 63.6317 92.342 63.2886 93.0472C62.5293 94.6044 61.8093 96.201 62.8724 98.0234C63.5079 99.1066 64.1997 100.179 64.2447 101.606C64.2179 102.966 64.6972 104.288 65.589 105.313C66.1514 105.922 66.7139 106.921 66.6408 107.671C66.5724 108.056 66.6324 108.453 66.8113 108.801C66.9901 109.149 67.2781 109.428 67.6307 109.595C67.9548 109.457 68.2896 109.345 68.6318 109.262C69.5962 109.238 70.5571 109.138 71.5059 108.963C73.8907 108.275 75.055 106.227 76.2643 104.297C76.4892 103.942 76.3486 103.355 76.388 102.672C76.5286 102.593 76.8492 102.39 77.1923 102.227C77.4006 102.16 77.5926 102.05 77.7561 101.904C77.9195 101.758 78.0507 101.579 78.1412 101.379C78.2318 101.18 78.2797 100.963 78.2819 100.744C78.2842 100.524 78.2406 100.307 78.1541 100.105C78.0472 99.7329 77.8729 99.3775 77.7829 98.9769C77.7322 98.7681 77.6985 98.4127 77.8166 98.328C78.6097 97.6002 79.4702 96.9458 80.252 96.2067C80.7638 95.7271 81.4332 95.1911 81.5569 94.5818C81.6826 93.641 81.6368 92.6852 81.4219 91.7608C81.315 91.1289 80.9045 90.5535 80.7863 89.9272C80.6682 89.3009 81.1238 88.4434 80.3926 87.834C80.3026 87.7607 80.3476 87.3827 80.4489 87.236C81.6356 85.5942 82.5918 83.6534 84.116 82.4178C86.1296 80.7816 87.1308 78.6264 88.2388 76.4768C88.4664 75.8239 88.6009 75.142 88.6381 74.4514C87.1083 74.8463 85.7415 75.2243 84.3635 75.529C84.2158 75.5517 84.0648 75.5379 83.9236 75.4888C83.7825 75.4396 83.6554 75.3565 83.5536 75.2469Z" fill="#ACCCF8"/>
<path d="M83.5536 99.4224C83.1767 100.224 83.2836 101.758 83.9248 102.311C84.0706 102.44 84.2458 102.532 84.4351 102.578C84.6244 102.624 84.822 102.623 85.0107 102.574C85.1993 102.526 85.3733 102.432 85.5174 102.3C85.6614 102.169 85.7712 102.004 85.8371 101.82C86.4446 99.8004 86.962 97.7636 87.5245 95.7325C87.5638 95.5746 87.5245 95.3827 87.6257 95.2586C87.8723 94.8893 87.9759 94.4422 87.9168 94.0016C87.8578 93.5611 87.6402 93.1573 87.3051 92.8664C86.124 93.7466 86.0059 95.6874 83.8911 95.5915C83.8911 96.2798 83.9304 96.9173 83.8911 97.5492C83.8865 98.1884 83.7723 98.822 83.5536 99.4224Z" fill="#ACCCF8"/>
<path d="M1.34612 66.3381C1.2046 66.267 1.05556 66.2121 0.901794 66.1745L0.986158 66.9192C1.4085 67.0649 1.82011 67.2403 2.21792 67.4439C2.63413 67.6527 2.88723 68.1774 3.34282 68.6795L5.27764 68.4595C3.84902 67.6922 2.61726 66.97 1.34612 66.3381Z" fill="#ACCCF8"/>
<path d="M8.96731 69.8982C9.05168 68.9504 7.35871 68.3523 5.83448 68.7698L6.6444 69.7008L5.05267 69.5541C6.29568 70.4342 7.65681 69.7854 8.96731 69.8982Z" fill="#ACCCF8"/>
<path d="M108.307 78.9365C108.611 78.8181 109.021 78.2313 108.948 78.0169C108.646 77.3475 108.287 76.7056 107.874 76.0986L107.553 76.2453C107.553 76.8942 107.553 77.543 107.553 78.1862C107.553 78.8293 107.728 79.1679 108.307 78.9365Z" fill="#ACCCF8"/>
<path d="M14.2205 51.658H3.70276V59.4833H14.2205V51.658Z" fill="#093269"/>
<path d="M14.2206 59.7651H3.70279C3.62821 59.7651 3.55668 59.7354 3.50394 59.6825C3.4512 59.6296 3.42157 59.5578 3.42157 59.483V51.6577C3.42157 51.5828 3.4512 51.5111 3.50394 51.4582C3.55668 51.4053 3.62821 51.3756 3.70279 51.3756H14.2206C14.2952 51.3756 14.3667 51.4053 14.4194 51.4582C14.4722 51.5111 14.5018 51.5828 14.5018 51.6577V59.483C14.5018 59.5578 14.4722 59.6296 14.4194 59.6825C14.3667 59.7354 14.2952 59.7651 14.2206 59.7651ZM3.98402 59.2009H13.9394V51.9398H3.98402V59.2009Z" fill="#093269"/>
<path d="M8.96164 46.1682L1.70044 52.1825H16.2285L8.96164 46.1682Z" fill="#1264D1"/>
<path d="M8.62982 53.1078H5.69946V59.4889H8.62982V53.1078Z" fill="white"/>
<path d="M8.62985 59.7653H5.6995C5.62491 59.7653 5.55338 59.7356 5.50064 59.6827C5.4479 59.6298 5.41827 59.558 5.41827 59.4832V53.1078C5.41827 53.033 5.4479 52.9612 5.50064 52.9083C5.55338 52.8554 5.62491 52.8257 5.6995 52.8257H8.62985C8.70444 52.8257 8.77597 52.8554 8.82871 52.9083C8.88145 52.9612 8.91108 53.033 8.91108 53.1078V59.4832C8.91108 59.558 8.88145 59.6298 8.82871 59.6827C8.77597 59.7356 8.70444 59.7653 8.62985 59.7653ZM5.98072 59.2011H8.34863V53.3899H5.98072V59.2011Z" fill="#093269"/>
<path d="M12.6626 53.8244H10.4465V56.0473H12.6626V53.8244Z" fill="white"/>
<path d="M12.6682 56.3293H10.4184C10.3442 56.3279 10.2735 56.2977 10.2211 56.2451C10.1687 56.1925 10.1386 56.1216 10.1371 56.0472V53.8243C10.1371 53.7495 10.1668 53.6778 10.2195 53.6248C10.2723 53.5719 10.3438 53.5422 10.4184 53.5422H12.6682C12.7427 53.5422 12.8143 53.5719 12.867 53.6248C12.9198 53.6778 12.9494 53.7495 12.9494 53.8243V56.0472C12.9479 56.1216 12.9179 56.1925 12.8654 56.2451C12.813 56.2977 12.7423 56.3279 12.6682 56.3293ZM10.7277 55.7651H12.4151V54.1064H10.7277V55.7651Z" fill="#093269"/>
<path d="M109.556 59.7652C109.484 59.7654 109.415 59.738 109.362 59.6887C109.31 59.6394 109.279 59.5719 109.274 59.5001C109.274 59.4098 108.83 50.3375 107.311 47.9905C105.793 45.6434 104.066 43.1554 104.049 43.1271C104.011 43.0657 103.998 42.992 104.013 42.9213C104.027 42.8505 104.068 42.788 104.128 42.7468C104.187 42.7055 104.259 42.6886 104.331 42.6995C104.402 42.7105 104.466 42.7484 104.51 42.8056C104.51 42.8056 106.198 45.2711 107.784 47.6858C109.37 50.1006 109.82 59.0938 109.837 59.4718C109.839 59.5086 109.834 59.5455 109.822 59.5802C109.81 59.615 109.791 59.647 109.766 59.6743C109.742 59.7017 109.712 59.7238 109.678 59.7394C109.645 59.755 109.609 59.7638 109.572 59.7652H109.556Z" fill="#093269"/>
<path d="M107.548 48.1203C107.484 48.1206 107.421 48.099 107.371 48.059C107.321 48.019 107.286 47.963 107.272 47.9003C106.771 45.4471 106.771 42.9174 107.272 40.4642C107.291 40.3913 107.337 40.3287 107.401 40.2897C107.465 40.2506 107.542 40.2384 107.615 40.2555C107.651 40.2647 107.685 40.2809 107.714 40.3032C107.744 40.3255 107.769 40.3534 107.788 40.3854C107.806 40.4174 107.819 40.4528 107.824 40.4895C107.829 40.5263 107.827 40.5637 107.818 40.5996C107.342 42.9681 107.342 45.4078 107.818 47.7762C107.826 47.8125 107.827 47.8501 107.821 47.8868C107.814 47.9235 107.801 47.9586 107.781 47.9901C107.761 48.0216 107.735 48.0488 107.705 48.0702C107.675 48.0916 107.64 48.1067 107.604 48.1147L107.548 48.1203Z" fill="#093269"/>
<path d="M107.356 44.47C107.307 44.4675 107.259 44.454 107.216 44.4305C107.152 44.3917 107.105 44.3293 107.086 44.2566C107.067 44.1838 107.077 44.1065 107.115 44.0412C107.171 43.9509 108.414 41.8578 109.409 41.2202C109.473 41.1813 109.55 41.1696 109.623 41.1876C109.696 41.2056 109.759 41.2518 109.797 41.3162C109.836 41.3805 109.848 41.4577 109.83 41.5307C109.812 41.6037 109.766 41.6665 109.702 41.7054C108.976 42.1512 107.936 43.7365 107.598 44.3064C107.577 44.3532 107.543 44.3933 107.5 44.4221C107.457 44.451 107.408 44.4675 107.356 44.47Z" fill="#093269"/>
<path d="M108.459 50.3377H108.386C108.314 50.3178 108.253 50.2708 108.215 50.2066C108.177 50.1424 108.166 50.066 108.183 49.9935C108.699 48.1065 109.555 46.3302 110.709 44.7521C110.756 44.6936 110.824 44.6561 110.899 44.6477C110.974 44.6393 111.049 44.6605 111.108 44.707C111.137 44.73 111.161 44.7586 111.179 44.7911C111.196 44.8236 111.207 44.8593 111.211 44.8961C111.215 44.9329 111.211 44.9701 111.2 45.0055C111.189 45.0409 111.171 45.0736 111.147 45.1019C110.05 46.6224 109.231 48.3265 108.729 50.1345C108.712 50.1931 108.676 50.2446 108.628 50.2812C108.579 50.3179 108.52 50.3377 108.459 50.3377Z" fill="#093269"/>
<path d="M105.382 45.209C105.347 45.2174 105.31 45.2174 105.275 45.209C104.808 45.0172 103.453 44.5715 102.801 44.8367C102.767 44.8513 102.73 44.859 102.693 44.8593C102.656 44.8596 102.62 44.8524 102.586 44.8382C102.551 44.8239 102.521 44.803 102.495 44.7766C102.469 44.7502 102.449 44.7188 102.435 44.6843C102.408 44.6153 102.409 44.5388 102.438 44.4705C102.466 44.4022 102.519 44.3475 102.587 44.3176C103.565 43.917 105.292 44.6053 105.489 44.69C105.523 44.7036 105.555 44.724 105.581 44.7499C105.607 44.7759 105.628 44.8069 105.642 44.8411C105.657 44.8753 105.664 44.912 105.663 44.949C105.663 44.9861 105.656 45.0227 105.641 45.0567C105.616 45.1036 105.579 45.1426 105.533 45.1695C105.487 45.1964 105.435 45.2101 105.382 45.209Z" fill="#093269"/>
<path d="M106.974 59.6807C106.907 59.6804 106.842 59.6566 106.79 59.6133C106.739 59.57 106.704 59.51 106.693 59.4437C106.597 58.7667 106.186 56.9105 105.478 56.4817C105.392 56.4156 105.292 56.3688 105.186 56.3445C105.081 56.3202 104.971 56.3189 104.865 56.3406C104.719 56.4016 104.602 56.5168 104.538 56.6622C104.525 56.6967 104.504 56.7281 104.479 56.7547C104.453 56.7813 104.422 56.8025 104.388 56.8172C104.354 56.8318 104.318 56.8397 104.281 56.8402C104.244 56.8407 104.207 56.8339 104.173 56.8202C104.139 56.8065 104.107 56.7861 104.081 56.7603C104.054 56.7345 104.033 56.7036 104.018 56.6696C104.004 56.6355 103.996 56.5989 103.995 56.5618C103.995 56.5248 104.002 56.4879 104.015 56.4535C104.078 56.3064 104.169 56.1735 104.284 56.0629C104.399 55.9524 104.535 55.8664 104.685 55.8103C104.867 55.7574 105.059 55.7466 105.246 55.7788C105.433 55.8111 105.61 55.8855 105.765 55.9965C106.833 56.6453 107.21 59.0826 107.255 59.3817C107.265 59.4563 107.245 59.5319 107.2 59.592C107.154 59.6521 107.087 59.6921 107.013 59.7032L106.974 59.6807Z" fill="#093269"/>
<path d="M106.912 59.3307C106.838 59.3307 106.768 59.3018 106.715 59.2501C106.663 59.1984 106.632 59.1281 106.631 59.0542C106.591 56.0584 107.126 55.9681 107.306 55.9399C107.37 55.9287 107.436 55.9315 107.499 55.948C107.562 55.9646 107.621 55.9945 107.671 56.0358C108.104 56.3574 108.296 57.5648 108.341 57.9315C108.345 57.9686 108.343 58.0062 108.333 58.0423C108.324 58.0783 108.307 58.1121 108.284 58.1417C108.261 58.1713 108.233 58.1961 108.201 58.2148C108.169 58.2334 108.133 58.2455 108.096 58.2503C108.059 58.2551 108.022 58.2526 107.986 58.2428C107.95 58.2331 107.916 58.2164 107.886 58.1936C107.857 58.1708 107.832 58.1424 107.814 58.11C107.795 58.0776 107.783 58.0419 107.778 58.0048C107.727 57.5106 107.6 57.0272 107.401 56.5718C107.222 57.3844 107.15 58.2172 107.188 59.0486C107.188 59.0854 107.182 59.1219 107.168 59.1561C107.155 59.1903 107.135 59.2215 107.109 59.2478C107.083 59.274 107.053 59.2949 107.019 59.3091C106.985 59.3234 106.949 59.3307 106.912 59.3307Z" fill="#093269"/>
<path d="M26.2963 25.0674H23.4447V28.3511H26.2963V25.0674Z" fill="white"/>
<path d="M36.7466 27.5048H33.895V30.7885H36.7466V27.5048Z" fill="white"/>
<path d="M109.696 26.7092H106.845V29.9928H109.696V26.7092Z" fill="#093269"/>
<path d="M109.696 30.2749H106.833C106.759 30.2749 106.687 30.2452 106.634 30.1923C106.582 30.1394 106.552 30.0676 106.552 29.9928V26.7092C106.552 26.6344 106.582 26.5626 106.634 26.5097C106.687 26.4568 106.759 26.4271 106.833 26.4271H109.685C109.759 26.4285 109.83 26.4587 109.882 26.5113C109.935 26.5639 109.965 26.6348 109.966 26.7092V29.9928C109.966 30.0657 109.938 30.1358 109.888 30.1884C109.837 30.241 109.769 30.272 109.696 30.2749ZM107.126 29.7107H109.415V26.9913H107.126V29.7107Z" fill="#093269"/>
<path d="M102.396 30.6416H99.5439V33.9252H102.396V30.6416Z" fill="#093269"/>
<path d="M102.39 34.2073H99.5215C99.4469 34.2073 99.3753 34.1776 99.3226 34.1247C99.2699 34.0718 99.2402 34.0001 99.2402 33.9252V30.6416C99.2402 30.5668 99.2699 30.4951 99.3226 30.4422C99.3753 30.3893 99.4469 30.3595 99.5215 30.3595H102.367C102.442 30.3595 102.514 30.3893 102.566 30.4422C102.619 30.4951 102.649 30.5668 102.649 30.6416V33.9252C102.649 33.9963 102.622 34.0648 102.574 34.1171C102.526 34.1694 102.461 34.2017 102.39 34.2073ZM99.8252 33.6431H102.109V30.9237H99.8252V33.6431Z" fill="#093269"/>
<path d="M109.488 33.6207H106.636V36.9043H109.488V33.6207Z" fill="#093269"/>
<path d="M109.488 37.1863H106.636C106.562 37.1849 106.492 37.1547 106.439 37.1021C106.387 37.0495 106.357 36.9786 106.355 36.9043V33.6206C106.355 33.5458 106.385 33.4741 106.438 33.4212C106.49 33.3683 106.562 33.3385 106.636 33.3385H109.488C109.563 33.3385 109.634 33.3683 109.687 33.4212C109.74 33.4741 109.769 33.5458 109.769 33.6206V36.9043C109.769 36.9791 109.74 37.0508 109.687 37.1037C109.634 37.1566 109.563 37.1863 109.488 37.1863ZM106.918 36.6222H109.207V33.9027H106.918V36.6222Z" fill="#093269"/>
<path d="M29.6373 34.0212H26.7856V37.3048H29.6373V34.0212Z" fill="white"/>
<path d="M53.2263 56.1093C53.0069 56.5889 52.7145 57.3449 51.6571 57.3449C50.5997 57.3449 25.2895 57.5198 24.5246 57.3449C24.2887 57.2744 24.0736 57.147 23.8981 56.9739C23.7226 56.8008 23.592 56.5873 23.5178 56.3519C23.5178 56.3519 23.4053 54.727 23.4559 54.0951C23.4559 54.0951 23.4559 54.0331 23.4559 54.0105C23.476 53.8508 23.5327 53.6979 23.6215 53.5638C23.7103 53.4297 23.8288 53.3181 23.9677 53.2375C23.9059 52.7856 23.9424 52.3256 24.0746 51.8891C24.294 51.3757 26.9937 49.1133 26.9937 49.1133C26.9937 49.1133 26.4313 48.961 26.3019 48.6958C26.1725 48.4306 37.669 47.7987 39.7107 48.2106C41.7523 48.6224 46.7413 52.1881 46.7413 52.1881C46.7413 52.1881 51.9383 52.2502 52.4839 52.7523C53.0294 53.2545 53.4456 55.6297 53.2263 56.1093Z" fill="#1264D1"/>
<path d="M29.2267 59.2011C30.3636 59.2011 31.2853 58.2766 31.2853 57.1362C31.2853 55.9957 30.3636 55.0712 29.2267 55.0712C28.0898 55.0712 27.1682 55.9957 27.1682 57.1362C27.1682 58.2766 28.0898 59.2011 29.2267 59.2011Z" fill="#093269"/>
<path d="M29.2266 58.1573C29.7889 58.1573 30.2447 57.7001 30.2447 57.1361C30.2447 56.5721 29.7889 56.1149 29.2266 56.1149C28.6644 56.1149 28.2086 56.5721 28.2086 57.1361C28.2086 57.7001 28.6644 58.1573 29.2266 58.1573Z" fill="white"/>
<path d="M29.2154 58.4396C28.9571 58.4396 28.7046 58.3627 28.4899 58.2186C28.2751 58.0745 28.1079 57.8698 28.0093 57.6303C27.9107 57.3908 27.8852 57.1273 27.936 56.8732C27.9868 56.6192 28.1117 56.3859 28.2947 56.2031C28.4778 56.0203 28.7108 55.8961 28.9643 55.8462C29.2178 55.7963 29.4803 55.8231 29.7187 55.923C29.957 56.0229 30.1604 56.1916 30.3031 56.4076C30.4458 56.6236 30.5214 56.8772 30.5203 57.1363C30.5188 57.4825 30.3806 57.814 30.1361 58.0582C29.8915 58.3025 29.5605 58.4396 29.2154 58.4396ZM29.2154 56.3916C29.0686 56.3916 28.925 56.4352 28.8029 56.5171C28.6808 56.5989 28.5857 56.7152 28.5295 56.8513C28.4733 56.9874 28.4586 57.1371 28.4872 57.2816C28.5159 57.4261 28.5866 57.5588 28.6904 57.6629C28.7942 57.7671 28.9265 57.838 29.0705 57.8667C29.2146 57.8955 29.3638 57.8807 29.4995 57.8243C29.6352 57.768 29.7511 57.6725 29.8327 57.5501C29.9143 57.4276 29.9578 57.2836 29.9578 57.1363C29.9578 56.9388 29.8796 56.7494 29.7404 56.6097C29.6011 56.47 29.4123 56.3916 29.2154 56.3916Z" fill="#093269"/>
<path d="M47.2082 59.2011C48.3451 59.2011 49.2667 58.2766 49.2667 57.1362C49.2667 55.9957 48.3451 55.0712 47.2082 55.0712C46.0712 55.0712 45.1496 55.9957 45.1496 57.1362C45.1496 58.2766 46.0712 59.2011 47.2082 59.2011Z" fill="#093269"/>
<path d="M47.2082 58.1573C47.7704 58.1573 48.2262 57.7001 48.2262 57.1361C48.2262 56.5721 47.7704 56.1149 47.2082 56.1149C46.6459 56.1149 46.1901 56.5721 46.1901 57.1361C46.1901 57.7001 46.6459 58.1573 47.2082 58.1573Z" fill="white"/>
<path d="M47.2138 58.4396C46.9552 58.4407 46.7021 58.3647 46.4867 58.2213C46.2712 58.0779 46.1031 57.8736 46.0037 57.6342C45.9042 57.3948 45.8779 57.1311 45.9281 56.8767C45.9782 56.6223 46.1026 56.3885 46.2855 56.2051C46.4683 56.0217 46.7013 55.8969 46.9549 55.8466C47.2086 55.7963 47.4714 55.8227 47.7101 55.9224C47.9488 56.0222 48.1525 56.1909 48.2954 56.407C48.4384 56.6231 48.5141 56.8769 48.513 57.1363C48.5115 57.4815 48.3742 57.8121 48.1308 58.0562C47.8875 58.3003 47.5579 58.4381 47.2138 58.4396ZM47.2138 56.3916C47.0667 56.3904 46.9226 56.4332 46.7998 56.5143C46.6769 56.5955 46.5809 56.7114 46.5238 56.8474C46.4668 56.9833 46.4513 57.1333 46.4793 57.2781C46.5073 57.4229 46.5776 57.5562 46.6812 57.6609C46.7848 57.7656 46.917 57.8371 47.0612 57.8663C47.2054 57.8955 47.3549 57.8811 47.4909 57.8249C47.6269 57.7687 47.7432 57.6732 47.825 57.5506C47.9069 57.428 47.9506 57.2838 47.9506 57.1363C47.9506 56.9398 47.8731 56.7512 47.7351 56.6117C47.5971 56.4722 47.4097 56.393 47.2138 56.3916Z" fill="#093269"/>
<path d="M27.1681 49.4349C27.0781 49.4913 24.8508 51.5732 24.8508 51.5732C25.2643 51.5429 25.6695 51.4418 26.0488 51.2742C26.6797 50.8616 27.248 50.3599 27.7362 49.7847L27.1681 49.4349Z" fill="#093269"/>
<path d="M24.8508 51.8555C24.7951 51.8547 24.7408 51.8374 24.695 51.8056C24.6491 51.7739 24.6137 51.7291 24.5932 51.6772C24.5727 51.6252 24.5681 51.5682 24.5799 51.5136C24.5917 51.459 24.6194 51.4091 24.6596 51.3703C26.9094 49.2659 26.9937 49.2151 27.0219 49.1925C27.0661 49.1662 27.1166 49.1523 27.1681 49.1523C27.2196 49.1523 27.2701 49.1662 27.3143 49.1925L27.8768 49.5367C27.9108 49.5588 27.9399 49.5878 27.9622 49.6218C27.9844 49.6558 27.9994 49.694 28.0061 49.7341C28.0126 49.7753 28.0099 49.8174 27.9983 49.8574C27.9866 49.8974 27.9662 49.9343 27.9386 49.9655C27.4277 50.575 26.8263 51.1021 26.1557 51.5283C25.7462 51.7096 25.3085 51.8184 24.8621 51.8499L24.8508 51.8555ZM27.1962 49.7849C26.9375 50.0162 26.3638 50.5522 25.807 51.0713L25.9363 51.0149C26.445 50.695 26.9037 50.3015 27.2975 49.847L27.1962 49.7849Z" fill="#093269"/>
<path d="M30.869 49.1415C30.1898 49.2136 29.5258 49.3906 28.9005 49.6662C28.7261 50.5068 29.2492 52.4872 30.9422 52.4872L30.869 49.1415Z" fill="#093269"/>
<path d="M30.9421 52.7918C30.6162 52.7902 30.2948 52.7141 30.0025 52.5694C29.7102 52.4248 29.4545 52.2153 29.2548 51.9568C29.0047 51.6239 28.8228 51.2446 28.7195 50.8408C28.6162 50.437 28.5936 50.0167 28.653 49.6041C28.6612 49.5668 28.6769 49.5316 28.6992 49.5005C28.7214 49.4695 28.7497 49.4433 28.7823 49.4236C29.4433 49.1302 30.1451 48.9399 30.8634 48.8594C30.9425 48.8523 31.0213 48.8766 31.0828 48.9271C31.1124 48.9532 31.1362 48.9853 31.1527 49.0213C31.1692 49.0572 31.1779 49.0963 31.1784 49.1358L31.2515 52.521C31.2524 52.5584 31.246 52.5956 31.2325 52.6305C31.2189 52.6654 31.1986 52.6972 31.1727 52.7241C31.1411 52.7508 31.1043 52.7707 31.0645 52.7823C31.0248 52.794 30.9832 52.7972 30.9421 52.7918ZM29.1592 49.8467C29.1256 50.4782 29.3147 51.1015 29.6935 51.607C29.9305 51.9165 30.2729 52.1274 30.6553 52.1994L30.5934 49.4687C30.1017 49.5352 29.62 49.6622 29.1592 49.8467Z" fill="#093269"/>
<path d="M25.8407 53.2377C25.6778 53.5285 25.446 53.7746 25.1658 53.9542C24.7132 54.0858 24.2406 54.1336 23.7709 54.0953C23.7709 54.0953 23.7709 54.0332 23.7709 54.0106C23.7911 53.8509 23.8477 53.6981 23.9365 53.564C24.0253 53.4299 24.1438 53.3182 24.2828 53.2377H25.8407Z" fill="white"/>
<path d="M52.0058 56.2504H24.1084C24.0711 56.2504 24.0353 56.2356 24.009 56.2091C23.9826 56.1827 23.9678 56.1468 23.9678 56.1094C23.9678 56.072 23.9826 56.0361 24.009 56.0096C24.0353 55.9832 24.0711 55.9683 24.1084 55.9683H52.0058C52.0427 55.9697 52.0776 55.985 52.1037 56.0112C52.1298 56.0373 52.145 56.0724 52.1464 56.1094C52.1464 56.1468 52.1316 56.1827 52.1052 56.2091C52.0789 56.2356 52.0431 56.2504 52.0058 56.2504Z" fill="#093269"/>
<path d="M31.7071 52.5945V49.1642C31.7071 49.1642 35.2055 49.0965 36.0829 49.1642L35.9648 52.5945H31.7071Z" fill="#093269"/>
<path d="M35.9648 52.8821H31.6958C31.6212 52.8821 31.5497 52.8524 31.4969 52.7995C31.4442 52.7466 31.4146 52.6748 31.4146 52.6V49.1697C31.4159 49.0963 31.4452 49.0262 31.4965 48.9738C31.5477 48.9213 31.617 48.8905 31.6901 48.8876C31.8308 48.8876 35.2167 48.8199 36.0997 48.8876C36.1709 48.8934 36.237 48.9266 36.2842 48.9803C36.3314 49.0339 36.356 49.1039 36.3528 49.1754L36.246 52.617C36.2417 52.6888 36.2102 52.7563 36.1579 52.8056C36.1056 52.8549 36.0365 52.8823 35.9648 52.8821ZM31.977 52.3179H35.6948L35.7848 49.4236C34.8511 49.3785 32.7363 49.4236 31.977 49.4236V52.3179Z" fill="#093269"/>
<path d="M36.9603 52.5944V49.1359C36.9603 49.1359 39.8907 49.0513 40.5712 49.2713C41.2518 49.4914 45.2171 52.6057 45.1496 52.5944C45.0821 52.5831 36.9603 52.5944 36.9603 52.5944Z" fill="#093269"/>
<path d="M45.1496 52.8822H36.9604C36.8862 52.8808 36.8155 52.8506 36.7631 52.798C36.7107 52.7454 36.6806 52.6745 36.6791 52.6001V49.1416C36.6791 49.0678 36.708 48.9969 36.7595 48.9441C36.811 48.8914 36.8811 48.861 36.9547 48.8595C37.2585 48.8595 39.9526 48.7806 40.6556 49.0062C41.5883 49.5068 42.4683 50.1003 43.2823 50.7778C45.4758 52.4309 45.4702 52.4704 45.4252 52.6622C45.4102 52.7244 45.375 52.7798 45.325 52.8197C45.2751 52.8595 45.2134 52.8815 45.1496 52.8822ZM37.2416 49.4181V52.318H44.3566C43.127 51.3127 41.8345 50.3874 40.4869 49.5479C39.4113 49.4063 38.325 49.3628 37.2416 49.4181Z" fill="#093269"/>
<path d="M52.6976 54.4451H50.7459C50.8518 54.6995 51.0298 54.9172 51.2577 55.0713C51.6402 55.3252 52.8438 55.1616 52.8438 55.1616L52.6976 54.4451Z" fill="white"/>
<path d="M47.2138 46.1682H41.055C40.9804 46.1682 40.9088 46.1385 40.8561 46.0856C40.8034 46.0327 40.7737 45.9609 40.7737 45.8861V42.0835C40.7737 42.0086 40.8034 41.9369 40.8561 41.884C40.9088 41.8311 40.9804 41.8014 41.055 41.8014H47.2138C47.2884 41.8014 47.3599 41.8311 47.4126 41.884C47.4654 41.9369 47.495 42.0086 47.495 42.0835V45.8861C47.4936 45.9605 47.4635 46.0314 47.411 46.084C47.3586 46.1366 47.2879 46.1668 47.2138 46.1682ZM41.3418 45.604H46.9325V42.3656H41.3418V45.604Z" fill="#ACCCF8"/>
</svg>
