<svg width="364" height="366" viewBox="0 0 364 366" fill="none" xmlns="http://www.w3.org/2000/svg">
<path d="M53.6691 102.503C74.06 102.503 90.5901 85.9896 90.5901 65.6198C90.5901 45.2501 74.06 28.7372 53.6691 28.7372C33.2781 28.7372 16.748 45.2501 16.748 65.6198C16.748 85.9896 33.2781 102.503 53.6691 102.503Z" fill="#1264D1"/>
<path d="M216.084 45.2206C209.82 45.6885 202.048 46.9538 198.543 41.7542C196.166 38.2878 196.808 32.7068 193.338 30.3497C191.256 28.9804 188.549 29.3097 186.068 29.4137C181.521 29.8359 176.975 28.6051 173.264 25.9473C169.794 23.1048 167.937 17.8706 170.054 13.8148C171.171 11.8931 172.83 10.3436 174.825 9.3605C180.655 6.18873 188.445 6.36205 193.442 10.7124C197.606 14.3175 199.688 20.4184 204.806 22.4636C208.051 23.7635 211.746 23.0702 215.216 22.9315C218.686 22.7929 222.711 23.5555 224.446 26.5886C225.991 29.2577 225.158 32.7415 226.407 35.5493C228.142 39.4317 232.913 40.6102 236.644 42.6554C240.374 44.7006 246.481 50.3162 246.099 55.1692C245.718 60.0222 240.686 62.102 236.713 59.0689C234.145 57.1451 233.972 52.708 231.942 50.2642C228.021 45.6885 221.775 44.7873 216.084 45.2206Z" fill="white"/>
<path d="M240.53 61.3922C238.925 61.366 237.372 60.8185 236.106 59.8323C234.589 58.4354 233.511 56.6294 233 54.6327C232.629 53.3044 232.043 52.0457 231.265 50.9063C228.194 47.1972 223.128 45.5853 216.223 46.088L214.366 46.244C208.259 46.7639 201.336 47.3532 197.884 42.2229C196.919 40.5743 196.239 38.7757 195.871 36.902C195.264 34.5101 194.674 32.257 192.87 31.0611C191.032 30.1766 188.964 29.8858 186.953 30.2291H186.12C182.286 30.4024 176.838 29.9171 172.726 26.624C169.152 23.7296 166.879 17.958 169.256 13.469C170.472 11.381 172.285 9.70331 174.461 8.65066C177.499 6.91316 180.988 6.12333 184.478 6.38278C187.969 6.64224 191.302 7.9391 194.049 10.1066C195.703 11.67 197.175 13.4141 198.439 15.3062C200.417 18.0273 202.291 20.5058 205.171 21.7537C207.653 22.5141 210.276 22.6979 212.84 22.291C213.62 22.291 214.401 22.1697 215.182 22.1524C217.993 22.031 223.007 22.4297 225.21 26.2427C225.979 27.8274 226.394 29.5603 226.425 31.321C226.461 32.6784 226.725 34.02 227.205 35.2901C228.368 37.9072 231.161 39.1898 234.145 40.4897C235.134 40.9403 236.141 41.4083 237.078 41.9109C241.311 44.2334 247.384 50.0744 246.985 55.2566C246.923 56.425 246.545 57.5547 245.891 58.5253C245.237 59.496 244.332 60.2711 243.272 60.7682C242.417 61.1805 241.48 61.3938 240.53 61.3922ZM218.513 44.2508C224.724 44.2508 229.548 46.14 232.549 49.7797C233.483 51.0963 234.187 52.5614 234.631 54.1127C235.046 55.7896 235.916 57.3193 237.147 58.5324C237.876 59.1347 238.755 59.5271 239.691 59.6676C240.626 59.8081 241.582 59.6913 242.456 59.3297C243.236 58.9635 243.9 58.3896 244.374 57.671C244.849 56.9524 245.116 56.117 245.145 55.2566C245.475 51.0796 240.027 45.6893 236.141 43.5748C235.239 43.0722 234.267 42.6389 233.313 42.1883C230.19 40.767 226.963 39.2765 225.522 36.0527C224.97 34.6114 224.659 33.0888 224.603 31.5463C224.597 30.0301 224.26 28.5335 223.614 27.1613C221.879 24.0416 217.108 23.8682 215.164 23.9549C214.401 23.9549 213.638 24.0416 212.892 24.0936C210.061 24.5222 207.169 24.2908 204.442 23.4176C201.094 22.083 198.994 19.1886 196.947 16.3981C195.762 14.6217 194.383 12.9824 192.835 11.5105C188.376 7.66273 180.967 7.12544 175.19 10.2799C173.36 11.145 171.823 12.5243 170.766 14.2489C168.77 18.01 170.766 22.7936 173.75 25.2375C177.428 28.2013 182.425 28.7039 185.982 28.4612H186.797C189.17 28.0843 191.601 28.4729 193.737 29.5705C196.114 31.1304 196.808 33.8342 197.467 36.5033C197.78 38.1765 198.366 39.7868 199.202 41.2696C202.082 45.568 208.467 45.0134 214.089 44.5454L215.98 44.3894C216.865 44.2854 217.698 44.2508 218.513 44.2508Z" fill="#ACCCF8"/>
<path d="M267.84 37.0744C265.547 35.5617 263.608 33.5723 262.156 31.242C260.703 28.9118 259.772 26.2957 259.425 23.5728C259.438 21.1331 259.046 18.7081 258.262 16.3973C257.1 13.9534 254.567 12.3242 253.491 9.82841C252.832 8.3183 252.771 6.61431 253.321 5.06108C253.871 3.50785 254.991 2.22131 256.455 1.46167C257.918 0.702027 259.616 0.525987 261.205 0.96915C262.793 1.41231 264.154 2.4416 265.012 3.84884C265.879 5.55028 266.404 7.4052 266.556 9.30845C266.932 13.0984 268.478 16.6779 270.98 19.5517C274.884 23.4168 281.789 24.5434 283.507 29.7603C284.305 32.2215 283.507 34.9599 284.409 37.4384C285.246 39.196 286.426 40.7692 287.879 42.0661C290.638 45.3245 294.299 52.7426 292.217 57.145C290.135 61.5473 284.687 61.634 282.049 57.4223C280.314 54.7185 281.772 50.4895 280.766 47.491C278.805 41.7021 274.138 40.1596 269.245 37.7851C268.829 37.5944 268.291 37.3344 267.84 37.0744Z" fill="white"/>
<path d="M287.133 61.3737C285.94 61.3485 284.773 61.0162 283.746 60.409C282.719 59.8017 281.866 58.9401 281.269 57.9073C280.358 56.0606 280.002 53.9895 280.245 51.945C280.343 50.5546 280.226 49.1576 279.898 47.8027C278.285 43.0364 274.693 41.3551 270.529 39.4139L268.794 38.5993C268.309 38.3567 267.84 38.0967 267.372 37.8021C264.968 36.2238 262.935 34.1437 261.414 31.7051C259.892 29.2665 258.918 26.5274 258.558 23.6764C258.471 23.0005 258.419 22.3245 258.384 21.6312C258.384 19.9704 258.072 18.3243 257.465 16.7782C256.877 15.6939 256.141 14.6965 255.279 13.8145C254.212 12.7533 253.338 11.5161 252.693 10.1574C251.995 8.45404 251.961 6.5513 252.597 4.8238C253.233 3.09629 254.493 1.66922 256.129 0.823541C257.766 -0.0221344 259.66 -0.22513 261.439 0.254535C263.218 0.734199 264.752 1.86176 265.741 3.41521C266.602 5.02765 267.132 6.79525 267.302 8.61483L267.389 9.1868C267.875 12.0813 268.829 16.2409 271.57 18.9448C273.142 20.3282 274.893 21.4941 276.775 22.4112C279.898 24.1444 283.143 25.8776 284.288 29.448C284.653 30.7678 284.817 32.1351 284.774 33.5037C284.722 34.7198 284.863 35.9364 285.19 37.1088C285.694 38.3324 286.458 39.4322 287.428 40.3326L288.452 41.4765C291.575 45.1509 295.149 52.777 292.911 57.474C292.439 58.5445 291.684 59.4666 290.727 60.1413C289.771 60.8161 288.648 61.2181 287.48 61.3044L287.133 61.3737ZM259.373 1.71666C258.529 1.70773 257.695 1.90402 256.944 2.28862C255.722 2.97982 254.788 4.08491 254.311 5.4041C253.834 6.7233 253.845 8.16956 254.342 9.48144C254.93 10.6544 255.703 11.7253 256.632 12.6532C257.624 13.6777 258.454 14.8465 259.096 16.1196C259.785 17.84 260.144 19.6744 260.154 21.5272C260.154 22.1685 260.154 22.8271 260.31 23.4684C260.636 26.0634 261.522 28.5568 262.906 30.777C264.29 32.9971 266.139 34.8912 268.326 36.3288C268.742 36.5888 269.159 36.8141 269.592 37.0395L271.327 37.8367C275.665 39.8646 279.742 41.7884 281.581 47.2654C281.996 48.8003 282.148 50.3941 282.032 51.9797C281.814 53.6861 282.072 55.4197 282.779 56.9887C283.243 57.8153 283.925 58.4993 284.751 58.9667C285.577 59.4341 286.514 59.6671 287.463 59.6405C288.314 59.5706 289.13 59.2685 289.822 58.7673C290.513 58.2661 291.054 57.5849 291.384 56.798C293.119 53.0196 290.031 46.0348 287.151 42.6724C286.838 42.2737 286.509 41.9271 286.179 41.5805C285.044 40.5108 284.161 39.2024 283.594 37.7501C283.191 36.4019 283.015 34.9962 283.073 33.5904C283.114 32.4215 282.98 31.253 282.674 30.1239C281.738 27.2642 278.927 25.7043 275.96 24.0577C273.928 23.0612 272.048 21.7834 270.373 20.262C267.268 17.2115 266.227 12.6879 265.706 9.55077L265.602 8.97881C265.464 7.38034 265.01 5.82511 264.266 4.40314C263.733 3.57701 263.001 2.89797 262.137 2.42852C261.273 1.95906 260.305 1.71427 259.321 1.71666H259.373Z" fill="#ACCCF8"/>
<path d="M20.4773 144.273H13.624V153.736H20.4773V144.273Z" fill="#093269"/>
<path d="M20.4622 154.638H13.6263C13.3962 154.638 13.1756 154.546 13.0129 154.384C12.8502 154.221 12.7588 154.001 12.7588 153.771V144.238C12.7588 144.008 12.8502 143.788 13.0129 143.626C13.1756 143.463 13.3962 143.372 13.6263 143.372H20.4622C20.6923 143.372 20.913 143.463 21.0756 143.626C21.2383 143.788 21.3297 144.008 21.3297 144.238V153.719C21.3368 153.837 21.3197 153.955 21.2793 154.067C21.2389 154.178 21.1761 154.28 21.0948 154.366C21.0135 154.452 20.9155 154.52 20.8067 154.567C20.6979 154.614 20.5807 154.638 20.4622 154.638ZM14.4938 152.904H19.5947V145.157H14.4938V152.904Z" fill="#093269"/>
<path d="M21.6076 141.621H12.4814V144.291H21.6076V141.621Z" fill="white"/>
<path d="M21.606 145.14H12.4798C12.2497 145.14 12.0291 145.049 11.8664 144.886C11.7037 144.723 11.6123 144.503 11.6123 144.273V141.621C11.6123 141.392 11.7037 141.171 11.8664 141.009C12.0291 140.846 12.2497 140.755 12.4798 140.755H21.606C21.836 140.755 22.0567 140.846 22.2194 141.009C22.3821 141.171 22.4735 141.392 22.4735 141.621V144.239C22.4781 144.355 22.4592 144.472 22.4177 144.581C22.3762 144.69 22.313 144.79 22.232 144.874C22.151 144.958 22.0537 145.025 21.9462 145.071C21.8386 145.116 21.7229 145.14 21.606 145.14ZM13.3473 143.407H20.7211V142.505H13.33L13.3473 143.407Z" fill="#093269"/>
<path d="M351.953 74.7371H260.604V183.825H351.953V74.7371Z" fill="white"/>
<path d="M351.97 184.691H260.605C260.375 184.691 260.154 184.6 259.991 184.437C259.829 184.275 259.737 184.054 259.737 183.825V74.7365C259.737 74.5066 259.829 74.2862 259.991 74.1237C260.154 73.9612 260.375 73.8699 260.605 73.8699H351.97C352.201 73.8699 352.421 73.9612 352.584 74.1237C352.747 74.2862 352.838 74.5066 352.838 74.7365V183.825C352.838 184.054 352.747 184.275 352.584 184.437C352.421 184.6 352.201 184.691 351.97 184.691ZM261.472 182.958H351.103V75.6031H261.472V182.958Z" fill="#093269"/>
<path d="M146.788 183.825H53.6699V50.437L146.788 75.0659V183.825Z" fill="#093269"/>
<path d="M146.788 184.691H53.6876C53.4576 184.691 53.2369 184.6 53.0742 184.437C52.9115 184.275 52.8201 184.054 52.8201 183.825V50.3676C52.8143 50.2345 52.8405 50.102 52.8966 49.9812C52.9526 49.8604 53.0369 49.7548 53.1423 49.6733C53.2477 49.5918 53.3712 49.5367 53.5023 49.5128C53.6334 49.4888 53.7684 49.4967 53.8958 49.5356L147.031 74.1472C147.218 74.1973 147.382 74.308 147.498 74.4618C147.614 74.6156 147.676 74.8037 147.673 74.9965V183.755C147.683 183.876 147.667 183.998 147.627 184.112C147.586 184.227 147.523 184.332 147.439 184.42C147.356 184.508 147.255 184.578 147.143 184.625C147.03 184.671 146.91 184.694 146.788 184.691ZM54.5378 182.958H145.921V75.7244L54.5378 51.5635V182.958Z" fill="#093269"/>
<path d="M166.238 135.087V99.1754L90.7822 134.585V182.751H244.07V99.1754L166.238 135.087Z" fill="white"/>
<path d="M244.07 183.599H90.7816C90.5515 183.599 90.3308 183.508 90.1681 183.346C90.0055 183.183 89.9141 182.963 89.9141 182.733V134.584C89.9132 134.42 89.9603 134.258 90.0496 134.12C90.1389 133.981 90.2667 133.872 90.4172 133.804L165.855 98.3949C165.982 98.3219 166.126 98.2835 166.272 98.2835C166.418 98.2835 166.562 98.3219 166.688 98.3949C166.815 98.4699 166.92 98.5764 166.993 98.704C167.066 98.8316 167.104 98.9759 167.105 99.1229V133.683L243.705 98.3429C243.834 98.2747 243.977 98.239 244.122 98.239C244.267 98.239 244.41 98.2747 244.538 98.3429C244.663 98.4188 244.765 98.5259 244.835 98.6537C244.905 98.7814 244.94 98.9253 244.937 99.0709V182.629C244.952 182.751 244.941 182.875 244.904 182.993C244.867 183.11 244.805 183.218 244.723 183.31C244.641 183.402 244.54 183.475 244.428 183.525C244.315 183.575 244.193 183.6 244.07 183.599ZM91.6491 181.866H243.202V100.527L166.602 135.867C166.473 135.935 166.33 135.971 166.185 135.971C166.04 135.971 165.897 135.935 165.769 135.867C165.644 135.791 165.542 135.684 165.472 135.556C165.402 135.428 165.367 135.285 165.37 135.139V100.544L91.6491 135.208V181.866Z" fill="#093269"/>
<path d="M228.366 142.938H182.076V182.473H228.366V142.938Z" fill="#093269"/>
<path d="M228.368 183.339H182.078C181.848 183.339 181.628 183.248 181.465 183.086C181.302 182.923 181.211 182.703 181.211 182.473V142.938C181.211 142.708 181.302 142.488 181.465 142.326C181.628 142.163 181.848 142.072 182.078 142.072H228.368C228.599 142.072 228.819 142.163 228.982 142.326C229.145 142.488 229.236 142.708 229.236 142.938V182.473C229.236 182.703 229.145 182.923 228.982 183.086C228.819 183.248 228.599 183.339 228.368 183.339ZM182.946 181.606H227.501V143.805H182.946V181.606Z" fill="#093269"/>
<path d="M228.992 53.9207H249.361L255.121 167.22H223.231L228.992 53.9207Z" fill="#1264D1"/>
<path d="M249.934 45.9836H228.42C226.743 45.9836 225.384 47.3416 225.384 49.0167V50.8886C225.384 52.5637 226.743 53.9217 228.42 53.9217H249.934C251.611 53.9217 252.97 52.5637 252.97 50.8886V49.0167C252.97 47.3416 251.611 45.9836 249.934 45.9836Z" fill="#093269"/>
<path d="M249.934 54.7876H228.419C227.384 54.7876 226.391 54.3767 225.659 53.6454C224.927 52.914 224.516 51.9221 224.516 50.8879V49.0333C224.516 47.9975 224.926 47.0038 225.658 46.2697C226.39 45.5356 227.382 45.1209 228.419 45.1163H249.934C250.97 45.1209 251.963 45.5356 252.695 46.2697C253.427 47.0038 253.837 47.9975 253.837 49.0333V50.8879C253.837 51.9221 253.426 52.914 252.694 53.6454C251.962 54.3767 250.969 54.7876 249.934 54.7876ZM228.419 46.8495C227.843 46.8541 227.291 47.0862 226.885 47.4952C226.479 47.9043 226.251 48.4571 226.251 49.0333V50.8879C226.251 51.4625 226.479 52.0135 226.886 52.4198C227.293 52.8261 227.844 53.0544 228.419 53.0544H249.934C250.509 53.0544 251.06 52.8261 251.467 52.4198C251.874 52.0135 252.102 51.4625 252.102 50.8879V49.0333C252.102 48.4571 251.874 47.9043 251.468 47.4952C251.062 47.0862 250.51 46.8541 249.934 46.8495H228.419Z" fill="#093269"/>
<path d="M272.854 53.9207H293.223L298.983 167.22H267.094L272.854 53.9207Z" fill="#1264D1"/>
<path d="M293.795 45.9836H272.28C270.604 45.9836 269.244 47.3416 269.244 49.0167V50.8886C269.244 52.5637 270.604 53.9217 272.28 53.9217H293.795C295.471 53.9217 296.831 52.5637 296.831 50.8886V49.0167C296.831 47.3416 295.471 45.9836 293.795 45.9836Z" fill="#093269"/>
<path d="M293.795 54.7876H272.298C271.263 54.7876 270.27 54.3767 269.538 53.6454C268.806 52.914 268.395 51.9221 268.395 50.8879V49.0333C268.395 47.9975 268.805 47.0038 269.537 46.2697C270.268 45.5356 271.261 45.1209 272.298 45.1163H293.812C294.849 45.1209 295.842 45.5356 296.574 46.2697C297.305 47.0038 297.716 47.9975 297.716 49.0333V50.8879C297.716 51.4014 297.615 51.91 297.417 52.3842C297.22 52.8585 296.931 53.2892 296.567 53.6515C296.202 54.0139 295.77 54.3008 295.294 54.4957C294.819 54.6907 294.309 54.7899 293.795 54.7876ZM272.298 46.8495C271.722 46.8541 271.17 47.0862 270.764 47.4952C270.357 47.9043 270.13 48.4571 270.13 49.0333V50.8879C270.13 51.4625 270.358 52.0135 270.765 52.4198C271.171 52.8261 271.723 53.0544 272.298 53.0544H293.812C294.388 53.0544 294.939 52.8261 295.346 52.4198C295.753 52.0135 295.981 51.4625 295.981 50.8879V49.0333C295.981 48.4571 295.753 47.9043 295.347 47.4952C294.941 47.0862 294.389 46.8541 293.812 46.8495H272.298Z" fill="#093269"/>
<path d="M209.074 167.221H310.312L317.582 182.75H201.805L209.074 167.221Z" fill="white"/>
<path d="M317.582 183.6H201.804C201.659 183.603 201.515 183.568 201.387 183.498C201.259 183.428 201.152 183.325 201.076 183.201C201.007 183.073 200.972 182.93 200.972 182.785C200.972 182.64 201.007 182.497 201.076 182.369L208.345 166.857C208.413 166.706 208.522 166.579 208.661 166.49C208.8 166.4 208.961 166.353 209.126 166.354H310.364C310.531 166.354 310.695 166.401 310.836 166.49C310.977 166.579 311.09 166.706 311.162 166.857L318.415 182.369C318.491 182.494 318.532 182.638 318.532 182.785C318.532 182.932 318.491 183.076 318.415 183.201C318.331 183.342 318.207 183.455 318.058 183.526C317.91 183.597 317.744 183.623 317.582 183.6ZM203.175 181.866H316.228L309.757 168.001H209.629L203.175 181.866Z" fill="#093269"/>
<path d="M1.74024 183.391C1.74024 183.495 1.74024 183.599 1.74024 183.703C1.73868 190.247 2.0978 196.785 2.81595 203.289C2.85023 204.05 2.93719 204.809 3.0762 205.559C4.43363 216.781 6.8562 227.848 10.3112 238.611L11.3522 241.714C11.7339 242.84 12.1329 243.967 12.5147 245.076C12.8964 246.185 13.226 246.931 13.573 247.849C13.92 248.768 14.3191 249.808 14.6834 250.761C14.7635 250.906 14.8331 251.057 14.8916 251.212C15.4642 252.685 16.1061 254.158 16.7307 255.597C17.0257 256.307 17.338 257.001 17.6503 257.694L18.7954 260.138C19.1887 261.004 19.6051 261.871 20.0446 262.738C21.2938 265.326 22.6124 267.868 24.0004 270.364C24.3937 271.103 24.8101 271.848 25.2496 272.6C25.5966 273.206 25.9263 273.83 26.2906 274.419C27.1234 275.858 28.0256 277.279 28.8758 278.7C29.3616 279.498 29.8474 280.278 30.3679 281.058C30.8884 281.838 31.6692 283.068 32.3458 284.056C35.5261 288.811 38.9425 293.404 42.5824 297.818L43.9704 299.551L45.1155 300.92L46.677 302.653C48.0997 304.283 49.5571 305.86 51.0319 307.42L53.2527 309.725L55.4041 311.891L57.8158 314.231C58.8221 315.184 59.8457 316.138 60.8867 317.074C61.9277 318.01 62.7779 318.807 63.7668 319.639C64.7558 320.471 66.1785 321.701 67.4104 322.724C92.4624 343.327 122.613 356.8 154.686 361.724C186.758 366.649 219.567 362.842 249.656 350.705C279.746 338.568 306.002 318.549 325.659 292.759C345.317 266.968 357.649 236.359 361.356 204.155C361.547 202.422 361.703 200.689 361.859 199.042C361.928 198.349 361.98 197.656 362.015 196.962C362.006 196.83 362.006 196.696 362.015 196.564C362.096 195.408 362.165 194.282 362.223 193.184C362.327 191.329 362.397 189.458 362.414 187.586C362.414 186.303 362.414 185.003 362.414 183.703C362.423 183.6 362.423 183.495 362.414 183.391H1.74024Z" fill="white"/>
<path d="M362.397 183.392C362.406 183.496 362.406 183.6 362.397 183.704C362.397 185.004 362.397 186.304 362.397 187.586C362.397 189.458 362.311 191.33 362.206 193.184C362.206 194.34 362.137 195.466 361.998 196.564C361.989 196.697 361.989 196.83 361.998 196.963C361.998 197.656 361.946 198.349 361.842 199.043C361.686 200.776 361.53 202.509 361.339 204.156C357.643 236.371 345.317 266.995 325.658 292.799C306 318.602 279.737 338.631 249.638 350.773C219.539 362.915 186.719 366.722 154.636 361.792C122.553 356.861 92.3954 343.377 67.3415 322.759C66.1096 321.736 64.8778 320.714 63.698 319.674C62.5182 318.634 61.7721 317.941 60.8179 317.109C59.8636 316.277 58.7532 315.22 57.7469 314.266L55.422 311.892L53.2706 309.725L51.0498 307.42C49.575 305.86 48.1176 304.283 46.6949 302.654L45.1334 300.921L43.9883 299.551L42.6003 297.818C38.9604 293.404 35.5439 288.811 32.3637 284.056C31.687 283.069 31.0277 282.063 30.3858 281.058C29.7438 280.053 29.3795 279.498 28.8937 278.701C28.0088 277.28 27.1587 275.858 26.3085 274.42C25.9442 273.831 25.6145 273.207 25.2675 272.6C24.9205 271.993 24.4173 271.109 24.0183 270.364C22.6303 267.868 21.3117 265.326 20.0625 262.738C19.6345 261.871 19.2181 261.005 18.8133 260.138L17.6682 257.694C17.3559 257.001 17.0436 256.308 16.7486 255.597C16.124 254.159 15.482 252.685 14.9095 251.212C14.851 251.057 14.7814 250.907 14.7013 250.762C14.3369 249.808 13.9552 248.838 13.5909 247.85C13.2265 246.862 12.8795 246.013 12.5325 245.077C12.1855 244.141 11.7518 242.841 11.3701 241.714L10.3291 238.612C6.89172 227.847 4.48659 216.779 3.14612 205.559C3.00711 204.81 2.92015 204.051 2.88587 203.289C2.16772 196.785 1.8086 190.247 1.81016 183.704C1.81016 183.6 1.81016 183.496 1.81016 183.392H362.397ZM362.397 181.659H1.74076C1.30089 181.657 0.877042 181.823 0.554941 182.123C0.23284 182.422 0.0365368 182.832 0.00574758 183.27C-0.00191586 183.415 -0.00191586 183.559 0.00574758 183.704C0.00659737 190.31 0.365697 196.912 1.08146 203.48C1.13317 204.27 1.22582 205.056 1.35905 205.837C2.69589 217.145 5.11279 228.3 8.5767 239.149C8.90635 240.189 9.2707 241.246 9.61771 242.269C9.96471 243.291 10.3985 244.539 10.7975 245.735C11.1966 246.931 11.4742 247.468 11.7865 248.37V248.543C12.1508 249.531 12.5325 250.519 12.9316 251.472C12.9316 251.663 13.0704 251.784 13.1051 251.888C13.6429 253.257 14.2328 254.661 14.9789 256.36C15.2565 257.036 15.5688 257.746 15.9331 258.509C16.2975 259.272 16.6792 260.138 17.0609 260.953C17.4426 261.767 17.8937 262.686 18.3275 263.587C19.594 266.204 20.9473 268.787 22.318 271.283C22.717 272.011 23.1334 272.773 23.5845 273.536L23.7927 273.917C24.0877 274.42 24.3653 274.922 24.6602 275.408C25.5277 276.916 26.3953 278.424 27.2454 279.689L27.6271 280.313L28.7375 282.046C29.4489 283.173 30.1082 284.16 30.7501 285.096C33.9426 289.845 37.4299 294.525 41.1602 298.962L42.5655 300.695C42.9299 301.146 43.329 301.597 43.7107 302.047C44.0924 302.498 44.7864 303.312 45.3416 303.919C46.7643 305.548 48.2043 307.125 49.7138 308.703C50.4425 309.483 51.1886 310.263 51.952 311.025C52.7154 311.788 53.392 312.516 54.1381 313.226C54.8841 313.937 55.7343 314.804 56.5324 315.566L57.2958 316.277L59.6554 318.461C60.6097 319.327 61.5639 320.194 62.5529 321.026C63.5418 321.858 64.9819 323.123 66.2311 324.146C91.525 344.924 121.958 358.507 154.327 363.466C186.697 368.425 219.806 364.576 250.17 352.324C280.534 340.072 307.031 319.87 326.873 293.844C346.714 267.818 359.166 236.931 362.918 204.433C363.143 202.492 363.299 200.845 363.421 199.233C363.421 198.557 363.542 197.847 363.594 197.153V197.015C363.603 196.963 363.603 196.91 363.594 196.859C363.603 196.825 363.603 196.789 363.594 196.755C363.681 195.611 363.733 194.467 363.785 193.288C363.889 191.434 363.959 189.527 363.994 187.638C363.994 186.356 363.994 185.038 363.994 183.721C364.002 183.559 364.002 183.397 363.994 183.236C363.95 182.807 363.749 182.409 363.428 182.121C363.107 181.832 362.69 181.674 362.259 181.676L362.397 181.659Z" fill="#093269"/>
<path d="M286.178 188.141C285.196 187.542 284.468 186.605 284.131 185.506C283.923 184.82 283.806 184.109 283.784 183.392H281.841C281.117 184.169 280.499 185.037 280.002 185.974C278.631 188.73 276.393 187.049 274.554 187.396C274.363 186.252 274.189 185.108 273.946 183.929C273.946 183.739 273.946 183.565 273.842 183.357H272.107L271.934 183.791L271.726 183.357H243.792C244.382 184.64 244.972 185.94 245.527 187.222C246.447 189.337 247.262 191.469 248.112 193.618C248.702 195.178 248.945 196.876 249.656 198.332C250.595 200.017 251.644 201.638 252.797 203.185C253.853 204.75 254.644 206.477 255.139 208.298C255.894 211.733 256.474 215.204 256.874 218.697C257.204 220.569 258.002 221.263 259.719 220.431C262.81 219.003 265.816 217.4 268.724 215.63C271.795 213.636 274.38 210.881 277.555 209.043C279.061 208.181 280.515 207.232 281.91 206.201C283.128 205.264 284.208 204.162 285.12 202.925C285.64 202.163 286.057 201.313 286.56 200.516C286.986 199.654 287.504 198.841 288.104 198.09C291.73 194.034 291.002 190.515 286.178 188.141Z" fill="#ACCCF8"/>
<path d="M287.706 183.391C288.673 183.623 289.661 183.757 290.656 183.79C295.132 184.067 299.643 183.79 303.651 183.79C306.184 186.667 308.596 189.44 311.007 192.161L308.908 193.028L313.749 197.222L316.247 194.189C316.681 196.477 317.08 198.921 317.514 201.434C318.19 205.559 318.988 209.927 320.081 214.19C321.594 221.172 323.808 227.984 326.692 234.521C330.891 229.599 332.98 223.222 332.504 216.773C332.269 215.187 332.479 213.567 333.111 212.093C334.655 209.805 337.223 208.176 338.715 205.854C341.023 202.249 345.551 200.394 346.436 195.68C346.575 195.09 347.859 194.501 348.709 194.293C351.051 193.669 353.463 193.271 355.909 192.751C356.219 194.562 356.804 196.316 357.644 197.95C359.112 199.859 360.336 201.944 361.288 204.155C361.479 202.422 361.635 200.689 361.791 199.042C361.86 198.349 361.912 197.656 361.947 196.962C361.938 196.83 361.938 196.696 361.947 196.564C362.028 195.408 362.098 194.282 362.155 193.184C362.259 191.329 362.329 189.458 362.346 187.586C362.346 186.303 362.346 185.003 362.346 183.703C362.355 183.6 362.355 183.495 362.346 183.391H287.706Z" fill="#ACCCF8"/>
<path d="M67.324 322.759C67.8787 321.62 68.2366 320.395 68.3823 319.136C68.5905 316.086 69.5968 314.041 72.13 312.88C75.0968 311.528 78.2545 310.626 81.3082 309.413C82.0237 309.23 82.6619 308.823 83.1299 308.252C84.6985 305.767 85.9461 303.094 86.8428 300.296C87.5316 296.393 87.9835 292.451 88.1961 288.493C88.1692 288.062 88.259 287.63 88.4564 287.245C90.0179 285.218 91.805 283.346 93.2103 281.197C94.6157 279.047 96.9059 276.24 97.062 273.657C97.1534 272.904 97.0891 272.14 96.873 271.412C96.6569 270.685 96.2936 270.009 95.8057 269.428C95.3178 268.846 94.7157 268.371 94.0365 268.031C93.3573 267.691 92.6155 267.494 91.857 267.452C91.3295 267.306 90.8771 266.965 90.5905 266.499C87.1204 261.75 81.9154 262.807 77.04 262.721C77.4564 260.675 76.4154 260.017 74.2987 259.531C69.3366 258.387 65.3634 256.065 63.8887 250.467C62.3792 244.556 59.4644 242.893 53.3051 242.563C51.4432 242.186 49.7066 241.345 48.2562 240.119C47.0764 239.166 46.0006 238.092 45.0464 236.913C44.5745 236.283 44.0397 235.702 43.4502 235.18C41.7152 234.001 40.5007 231.488 38.2452 231.973C35.9897 232.459 33.4219 233.1 31.0102 231.973C28.5985 230.847 26.6553 229.928 24.0702 228.698C23.4282 230.431 22.5781 232.788 21.6758 235.284C19.9408 232.701 21.6758 230.171 22.0749 227.484C17.2863 230.448 11.6648 232.129 10.6238 238.681L10.3115 238.49C20.8241 271.465 40.6162 300.719 67.324 322.759Z" fill="#ACCCF8"/>
<path d="M257.741 231.159C257.047 229.963 257.134 228.213 256.301 227.19C254.74 225.301 252.675 223.828 250.958 221.99C249.972 221.075 249.197 219.958 248.685 218.715C247.279 214.416 244.07 211.002 243.566 206.131C243.254 203.133 240.478 200.447 239.107 197.465C237.378 193.78 235.855 190.001 234.544 186.148C233.607 183.322 232.011 183.565 229.756 184.172C228.081 184.738 226.29 184.87 224.551 184.553C223.215 184.206 221.896 183.79 220.577 183.322H209.317C209.231 183.617 209.173 183.919 209.144 184.224C208.953 186.356 208.033 187.517 206.003 185.957C204.268 184.674 201.51 184.969 200.052 183.27H148.366C148.177 183.888 148.089 184.532 148.106 185.177C148.106 189.146 146.007 190.533 142.901 191.503C142.093 191.726 141.384 192.215 140.888 192.89C139.032 195.906 137.176 198.939 135.683 202.11C134.556 204.329 132.508 206.218 134.573 209.477C135.623 211.878 135.704 214.591 134.799 217.051C133.858 220.278 133.581 223.662 133.983 226.999C133.983 227.71 134.747 228.421 135.25 229.044C135.753 229.668 136.447 229.963 136.863 230.535C138.566 233.389 140.455 236.128 142.519 238.733C144.887 240.981 147.39 243.082 150.015 245.025C150.698 245.622 151.541 246.008 152.44 246.138C153.339 246.267 154.256 246.133 155.081 245.753C157.774 245.23 160.51 244.963 163.253 244.955C164.308 244.914 165.355 244.757 166.376 244.487C168.462 243.612 170.593 242.849 172.761 242.2C174.929 241.749 177.966 240.38 178.903 243.638C179.822 246.585 181.488 246.481 183.847 246.255C184.466 246.191 185.092 246.267 185.677 246.477C186.263 246.687 186.794 247.026 187.231 247.468C188.089 248.868 188.398 250.535 188.098 252.148C186.675 256.932 186.641 260.936 190.562 264.939C192.205 266.697 193.464 268.778 194.259 271.049C195.053 273.32 195.366 275.731 195.177 278.129C195.129 278.784 195.3 279.436 195.663 279.983C197.242 282.133 196.287 283.675 195.229 285.842C192.887 290.625 190.666 295.53 193.945 301.129C195.906 304.456 198.04 307.749 198.179 312.134C198.096 316.313 199.574 320.373 202.325 323.522C204.06 325.394 205.795 328.461 205.57 330.766C205.359 331.95 205.544 333.17 206.096 334.238C206.647 335.306 207.536 336.163 208.623 336.677C209.623 336.252 210.656 335.91 211.712 335.654C214.686 335.579 217.651 335.272 220.577 334.736C227.934 332.621 231.525 326.329 235.256 320.402C235.95 319.31 235.516 317.507 235.637 315.41C236.071 315.168 237.06 314.544 238.118 314.041C238.761 313.835 239.353 313.497 239.857 313.049C240.362 312.601 240.766 312.052 241.046 311.439C241.325 310.825 241.473 310.16 241.48 309.486C241.487 308.811 241.352 308.143 241.085 307.524C240.756 306.38 240.218 305.288 239.94 304.058C239.784 303.416 239.68 302.325 240.044 302.065C242.491 299.829 245.145 297.818 247.557 295.548C249.136 294.074 251.2 292.428 251.582 290.556C251.97 287.666 251.829 284.73 251.166 281.89C250.836 279.949 249.57 278.181 249.205 276.257C248.841 274.333 250.246 271.699 247.991 269.827C247.713 269.602 247.852 268.44 248.164 267.99C251.825 262.946 254.775 256.984 259.476 253.188C265.688 248.162 268.776 241.541 272.194 234.937C272.896 232.932 273.311 230.837 273.426 228.715C268.707 229.928 264.491 231.09 260.24 232.026C259.784 232.095 259.318 232.053 258.883 231.902C258.448 231.751 258.056 231.496 257.741 231.159Z" fill="#ACCCF8"/>
<path d="M257.742 305.426C256.579 307.888 256.909 312.602 258.887 314.3C259.336 314.698 259.877 314.98 260.461 315.121C261.045 315.262 261.654 315.257 262.236 315.109C262.818 314.96 263.355 314.671 263.799 314.267C264.244 313.864 264.582 313.357 264.786 312.793C266.66 306.588 268.256 300.331 269.991 294.091C270.112 293.606 269.991 293.017 270.303 292.635C271.064 291.501 271.383 290.127 271.201 288.774C271.019 287.42 270.348 286.18 269.314 285.286C265.671 287.99 265.306 293.953 258.783 293.658C258.783 295.772 258.904 297.731 258.783 299.672C258.768 301.636 258.416 303.582 257.742 305.426Z" fill="#ACCCF8"/>
<path d="M4.1519 203.791C3.71534 203.573 3.25557 203.404 2.78125 203.288L3.04149 205.576C4.34432 206.024 5.61402 206.563 6.84117 207.188C8.12507 207.829 8.90583 209.441 10.3112 210.984L16.2796 210.308C11.8727 207.951 8.07302 205.732 4.1519 203.791Z" fill="#ACCCF8"/>
<path d="M27.6626 214.728C27.9228 211.816 22.7005 209.979 17.9986 211.262L20.497 214.121L15.5869 213.671C19.4213 216.375 23.62 214.381 27.6626 214.728Z" fill="#ACCCF8"/>
<path d="M334.1 242.494C335.037 242.13 336.304 240.327 336.078 239.669C335.147 237.612 334.038 235.64 332.764 233.776L331.775 234.226C331.775 236.219 331.775 238.213 331.775 240.189C331.775 242.164 332.313 243.204 334.1 242.494Z" fill="#ACCCF8"/>
<path d="M43.8675 158.694H11.4229V182.733H43.8675V158.694Z" fill="#093269"/>
<path d="M43.8659 183.599H11.4212C11.1911 183.599 10.9705 183.508 10.8078 183.345C10.6451 183.183 10.5537 182.962 10.5537 182.732V158.693C10.5537 158.463 10.6451 158.242 10.8078 158.08C10.9705 157.917 11.1911 157.826 11.4212 157.826H43.8659C44.096 157.826 44.3166 157.917 44.4793 158.08C44.642 158.242 44.7334 158.463 44.7334 158.693V182.732C44.7334 182.962 44.642 183.183 44.4793 183.345C44.3166 183.508 44.096 183.599 43.8659 183.599ZM12.2887 181.866H42.9984V159.559H12.2887V181.866Z" fill="#093269"/>
<path d="M27.6451 141.829L5.24609 160.305H50.0614L27.6451 141.829Z" fill="#1264D1"/>
<path d="M26.6214 163.148H17.582V182.75H26.6214V163.148Z" fill="white"/>
<path d="M26.6198 183.599H17.5804C17.3503 183.599 17.1297 183.508 16.967 183.346C16.8043 183.183 16.7129 182.963 16.7129 182.733V163.148C16.7129 162.918 16.8043 162.697 16.967 162.535C17.1297 162.372 17.3503 162.281 17.5804 162.281H26.6198C26.8499 162.281 27.0705 162.372 27.2332 162.535C27.3959 162.697 27.4873 162.918 27.4873 163.148V182.733C27.4873 182.963 27.3959 183.183 27.2332 183.346C27.0705 183.508 26.8499 183.599 26.6198 183.599ZM18.4479 181.866H25.7523V164.014H18.4479V181.866Z" fill="#093269"/>
<path d="M39.0606 165.349H32.2246V172.178H39.0606V165.349Z" fill="white"/>
<path d="M39.0781 173.044H32.138C31.9093 173.04 31.6912 172.947 31.5295 172.785C31.3678 172.624 31.2749 172.406 31.2705 172.178V165.349C31.2705 165.119 31.3619 164.899 31.5246 164.736C31.6873 164.573 31.9079 164.482 32.138 164.482H39.0781C39.3081 164.482 39.5288 164.573 39.6915 164.736C39.8542 164.899 39.9456 165.119 39.9456 165.349V172.178C39.9411 172.406 39.8483 172.624 39.6865 172.785C39.5248 172.947 39.3067 173.04 39.0781 173.044ZM33.0923 171.311H38.2973V166.215H33.0923V171.311Z" fill="#093269"/>
<path d="M337.951 183.599C337.73 183.6 337.517 183.516 337.355 183.364C337.194 183.213 337.097 183.005 337.084 182.785C337.084 182.507 335.713 154.637 331.028 147.427C326.344 140.217 321.017 132.574 320.965 132.487C320.848 132.298 320.808 132.072 320.853 131.854C320.898 131.637 321.025 131.445 321.207 131.318C321.39 131.192 321.614 131.14 321.834 131.173C322.053 131.207 322.252 131.324 322.388 131.499C322.388 131.499 327.593 139.073 332.486 146.491C337.379 153.909 338.767 181.537 338.819 182.698C338.826 182.811 338.81 182.924 338.773 183.031C338.735 183.138 338.677 183.236 338.601 183.32C338.525 183.404 338.433 183.472 338.33 183.52C338.228 183.568 338.116 183.595 338.003 183.599H337.951Z" fill="#093269"/>
<path d="M331.758 147.826C331.561 147.827 331.369 147.76 331.214 147.638C331.06 147.515 330.952 147.343 330.908 147.15C329.361 139.614 329.361 131.843 330.908 124.306C330.966 124.083 331.109 123.89 331.306 123.77C331.504 123.65 331.741 123.613 331.967 123.665C332.077 123.693 332.181 123.743 332.272 123.812C332.364 123.88 332.44 123.966 332.498 124.064C332.557 124.163 332.595 124.271 332.61 124.384C332.626 124.497 332.62 124.612 332.591 124.722C331.125 131.998 331.125 139.493 332.591 146.769C332.617 146.88 332.62 146.996 332.601 147.109C332.581 147.222 332.54 147.329 332.478 147.426C332.417 147.523 332.337 147.606 332.243 147.672C332.15 147.738 332.044 147.784 331.932 147.809L331.758 147.826Z" fill="#093269"/>
<path d="M331.168 136.612C331.016 136.604 330.868 136.563 330.734 136.491C330.536 136.372 330.393 136.18 330.334 135.956C330.276 135.733 330.307 135.495 330.422 135.295C330.596 135.018 334.43 128.587 337.501 126.629C337.699 126.509 337.936 126.473 338.161 126.528C338.385 126.584 338.579 126.726 338.698 126.924C338.818 127.121 338.854 127.358 338.799 127.582C338.743 127.807 338.601 128 338.403 128.119C336.165 129.489 332.955 134.359 331.914 136.109C331.848 136.253 331.743 136.376 331.612 136.465C331.48 136.554 331.327 136.605 331.168 136.612Z" fill="#093269"/>
<path d="M334.569 154.638H334.343C334.122 154.577 333.934 154.432 333.817 154.235C333.701 154.038 333.665 153.803 333.719 153.58C335.311 147.784 337.951 142.327 341.509 137.479C341.655 137.299 341.866 137.184 342.096 137.158C342.327 137.132 342.558 137.198 342.741 137.34C342.83 137.411 342.904 137.499 342.958 137.599C343.013 137.698 343.047 137.808 343.058 137.921C343.07 138.034 343.058 138.149 343.024 138.257C342.991 138.366 342.936 138.467 342.862 138.554C339.478 143.225 336.952 148.459 335.402 154.014C335.349 154.194 335.239 154.352 335.089 154.464C334.939 154.577 334.756 154.638 334.569 154.638Z" fill="#093269"/>
<path d="M325.076 138.882C324.968 138.908 324.855 138.908 324.747 138.882C323.307 138.293 319.125 136.924 317.113 137.739C317.008 137.784 316.896 137.807 316.782 137.808C316.668 137.809 316.555 137.787 316.45 137.743C316.344 137.699 316.249 137.635 316.169 137.554C316.089 137.473 316.027 137.376 315.985 137.271C315.903 137.059 315.906 136.823 315.993 136.614C316.081 136.404 316.245 136.236 316.453 136.144C319.472 134.913 324.799 137.028 325.406 137.288C325.512 137.33 325.608 137.392 325.69 137.472C325.771 137.552 325.835 137.647 325.879 137.752C325.923 137.857 325.945 137.97 325.944 138.084C325.943 138.198 325.92 138.31 325.875 138.415C325.798 138.559 325.682 138.678 325.542 138.761C325.401 138.844 325.24 138.886 325.076 138.882Z" fill="#093269"/>
<path d="M329.987 183.34C329.78 183.339 329.58 183.265 329.422 183.132C329.263 182.999 329.157 182.815 329.12 182.612C328.825 180.532 327.558 174.829 325.372 173.512C325.106 173.309 324.8 173.166 324.474 173.091C324.148 173.016 323.809 173.012 323.481 173.079C323.031 173.266 322.67 173.62 322.475 174.067C322.433 174.173 322.37 174.269 322.291 174.351C322.211 174.433 322.116 174.498 322.012 174.543C321.907 174.588 321.794 174.612 321.68 174.614C321.566 174.615 321.453 174.594 321.347 174.552C321.241 174.51 321.145 174.448 321.063 174.368C320.981 174.289 320.916 174.194 320.871 174.089C320.826 173.985 320.801 173.872 320.8 173.758C320.798 173.645 320.819 173.531 320.861 173.426C321.053 172.974 321.336 172.565 321.69 172.226C322.045 171.886 322.466 171.622 322.926 171.45C323.488 171.287 324.08 171.254 324.657 171.353C325.234 171.452 325.781 171.681 326.257 172.022C329.554 174.015 330.716 181.502 330.855 182.421C330.885 182.65 330.823 182.882 330.684 183.067C330.544 183.252 330.338 183.375 330.109 183.409L329.987 183.34Z" fill="#093269"/>
<path d="M329.796 182.264C329.569 182.265 329.351 182.176 329.188 182.017C329.026 181.858 328.933 181.642 328.928 181.415C328.807 172.212 330.455 171.935 331.01 171.848C331.208 171.814 331.412 171.822 331.606 171.873C331.801 171.924 331.982 172.016 332.138 172.143C333.474 173.13 334.064 176.84 334.203 177.966C334.217 178.08 334.21 178.196 334.18 178.306C334.15 178.417 334.098 178.521 334.028 178.612C333.958 178.703 333.871 178.779 333.771 178.836C333.672 178.894 333.562 178.931 333.448 178.945C333.334 178.96 333.218 178.952 333.107 178.923C332.996 178.893 332.892 178.841 332.801 178.771C332.71 178.701 332.634 178.614 332.577 178.515C332.52 178.415 332.482 178.305 332.468 178.191C332.309 176.673 331.917 175.188 331.305 173.789C330.751 176.285 330.529 178.844 330.646 181.398C330.648 181.511 330.628 181.623 330.586 181.728C330.545 181.833 330.482 181.929 330.403 182.01C330.324 182.09 330.229 182.154 330.125 182.198C330.021 182.242 329.909 182.265 329.796 182.264Z" fill="#093269"/>
<path d="M81.1178 77.0074H72.3213V87.0946H81.1178V77.0074Z" fill="white"/>
<path d="M113.353 84.4951H104.557V94.5823H113.353V84.4951Z" fill="white"/>
<path d="M338.385 82.0509H329.589V92.1382H338.385V82.0509Z" fill="#093269"/>
<path d="M338.383 93.0047H329.552C329.322 93.0047 329.101 92.9134 328.939 92.7509C328.776 92.5883 328.685 92.3679 328.685 92.1381V82.0508C328.685 81.821 328.776 81.6005 328.939 81.438C329.101 81.2755 329.322 81.1842 329.552 81.1842H338.349C338.577 81.1886 338.795 81.2814 338.957 81.4429C339.119 81.6045 339.212 81.8224 339.216 82.0508V92.1381C339.216 92.362 339.13 92.5774 338.974 92.7389C338.819 92.9005 338.607 92.9957 338.383 93.0047ZM330.454 91.2715H337.516V82.9174H330.454V91.2715Z" fill="#093269"/>
<path d="M315.865 94.1313H307.068V104.219H315.865V94.1313Z" fill="#093269"/>
<path d="M315.848 105.085H306.999C306.769 105.085 306.549 104.994 306.386 104.831C306.223 104.669 306.132 104.448 306.132 104.219V94.1314C306.132 93.9015 306.223 93.6811 306.386 93.5186C306.549 93.3561 306.769 93.2648 306.999 93.2648H315.778C316.009 93.2648 316.229 93.3561 316.392 93.5186C316.555 93.6811 316.646 93.9015 316.646 94.1314V104.219C316.647 104.437 316.565 104.648 316.417 104.808C316.269 104.969 316.066 105.068 315.848 105.085ZM307.936 103.352H314.98V94.998H307.936V103.352Z" fill="#093269"/>
<path d="M337.742 103.283H328.945V113.37H337.742V103.283Z" fill="#093269"/>
<path d="M337.743 114.237H328.947C328.718 114.232 328.5 114.14 328.338 113.978C328.176 113.816 328.084 113.599 328.079 113.37V103.283C328.079 103.053 328.171 102.833 328.333 102.67C328.496 102.508 328.717 102.416 328.947 102.416H337.743C337.973 102.416 338.194 102.508 338.357 102.67C338.519 102.833 338.611 103.053 338.611 103.283V113.37C338.611 113.6 338.519 113.82 338.357 113.983C338.194 114.145 337.973 114.237 337.743 114.237ZM329.814 112.504H336.876V104.149H329.814V112.504Z" fill="#093269"/>
<path d="M91.4235 104.513H82.627V114.601H91.4235V104.513Z" fill="white"/>
<path d="M164.189 172.368C163.512 173.841 162.61 176.164 159.348 176.164C156.086 176.164 78.011 176.701 75.6514 176.164C74.9238 175.947 74.2603 175.556 73.7189 175.024C73.1775 174.493 72.7747 173.837 72.5457 173.113C72.5457 173.113 72.1987 168.122 72.3548 166.181C72.3548 166.181 72.3548 165.99 72.3548 165.921C72.4169 165.43 72.5917 164.96 72.8656 164.548C73.1395 164.137 73.5051 163.794 73.9337 163.546C73.7429 162.158 73.8554 160.745 74.2634 159.404C74.94 157.827 83.2681 150.876 83.2681 150.876C83.2681 150.876 81.5331 150.408 81.134 149.594C80.735 148.779 116.199 146.838 122.497 148.103C128.795 149.368 144.184 160.322 144.184 160.322C144.184 160.322 160.216 160.513 161.899 162.056C163.582 163.598 164.866 170.895 164.189 172.368Z" fill="#1264D1"/>
<path d="M90.1578 181.866C93.6648 181.866 96.5079 179.026 96.5079 175.523C96.5079 172.019 93.6648 169.179 90.1578 169.179C86.6507 169.179 83.8076 172.019 83.8076 175.523C83.8076 179.026 86.6507 181.866 90.1578 181.866Z" fill="#093269"/>
<path d="M90.157 178.66C91.8913 178.66 93.2973 177.255 93.2973 175.522C93.2973 173.79 91.8913 172.385 90.157 172.385C88.4226 172.385 87.0166 173.79 87.0166 175.522C87.0166 177.255 88.4226 178.66 90.157 178.66Z" fill="white"/>
<path d="M90.1219 179.527C89.325 179.527 88.5461 179.291 87.8838 178.848C87.2215 178.405 86.7055 177.776 86.4014 177.041C86.0973 176.305 86.0186 175.495 86.1753 174.715C86.332 173.934 86.7171 173.218 87.2818 172.656C87.8465 172.095 88.5653 171.713 89.3473 171.56C90.1292 171.407 90.9391 171.489 91.6743 171.796C92.4095 172.103 93.037 172.621 93.4772 173.284C93.9174 173.948 94.1505 174.727 94.1471 175.523C94.1425 176.587 93.7164 177.605 92.962 178.355C92.2076 179.106 91.1864 179.527 90.1219 179.527ZM90.1219 173.235C89.6689 173.235 89.2261 173.369 88.8495 173.621C88.4729 173.872 88.1793 174.23 88.006 174.648C87.8326 175.066 87.7873 175.526 87.8757 175.969C87.964 176.413 88.1821 176.821 88.5024 177.141C88.8227 177.461 89.2308 177.679 89.6751 177.767C90.1193 177.855 90.5798 177.81 90.9983 177.637C91.4168 177.464 91.7744 177.17 92.0261 176.794C92.2777 176.418 92.4121 175.976 92.4121 175.523C92.4121 174.916 92.1708 174.334 91.7413 173.905C91.3118 173.476 90.7293 173.235 90.1219 173.235Z" fill="#093269"/>
<path d="M145.625 181.866C149.132 181.866 151.975 179.026 151.975 175.523C151.975 172.019 149.132 169.179 145.625 169.179C142.117 169.179 139.274 172.019 139.274 175.523C139.274 179.026 142.117 181.866 145.625 181.866Z" fill="#093269"/>
<path d="M145.625 178.66C147.359 178.66 148.765 177.255 148.765 175.522C148.765 173.79 147.359 172.385 145.625 172.385C143.89 172.385 142.484 173.79 142.484 175.522C142.484 177.255 143.89 178.66 145.625 178.66Z" fill="white"/>
<path d="M145.642 179.527C144.845 179.53 144.064 179.297 143.399 178.856C142.735 178.416 142.216 177.788 141.909 177.053C141.603 176.317 141.521 175.507 141.676 174.726C141.831 173.944 142.215 173.226 142.779 172.662C143.343 172.099 144.061 171.716 144.844 171.561C145.626 171.407 146.437 171.488 147.173 171.794C147.909 172.101 148.538 172.619 148.979 173.283C149.42 173.947 149.653 174.726 149.65 175.523C149.645 176.584 149.222 177.599 148.471 178.349C147.72 179.099 146.704 179.522 145.642 179.527ZM145.642 173.235C145.188 173.232 144.744 173.363 144.365 173.612C143.986 173.862 143.69 174.218 143.514 174.635C143.338 175.053 143.29 175.514 143.376 175.959C143.463 176.404 143.68 176.813 143.999 177.135C144.319 177.456 144.727 177.676 145.172 177.766C145.616 177.855 146.078 177.811 146.497 177.638C146.917 177.466 147.275 177.173 147.528 176.796C147.78 176.419 147.915 175.976 147.915 175.523C147.915 174.919 147.676 174.34 147.25 173.911C146.825 173.483 146.247 173.24 145.642 173.235Z" fill="#093269"/>
<path d="M83.8064 151.864C83.5288 152.038 76.6582 158.433 76.6582 158.433C77.9336 158.34 79.1835 158.03 80.3538 157.515C82.2997 156.247 84.0528 154.706 85.5588 152.939L83.8064 151.864Z" fill="#093269"/>
<path d="M76.6592 159.301C76.4873 159.298 76.32 159.245 76.1785 159.147C76.037 159.05 75.9277 158.912 75.8645 158.753C75.8013 158.593 75.787 158.418 75.8235 158.25C75.8599 158.082 75.9455 157.929 76.0693 157.81C83.0093 151.345 83.2696 151.189 83.3563 151.12C83.4929 151.039 83.6487 150.996 83.8074 150.996C83.9662 150.996 84.122 151.039 84.2585 151.12L85.9935 152.177C86.0985 152.245 86.1882 152.334 86.2569 152.438C86.3256 152.543 86.3718 152.66 86.3926 152.784C86.4126 152.91 86.4043 153.039 86.3683 153.162C86.3323 153.285 86.2695 153.399 86.1844 153.494C84.6082 155.367 82.7532 156.986 80.6844 158.295C79.4213 158.852 78.0712 159.187 76.6939 159.283L76.6592 159.301ZM83.8942 152.94C83.0961 153.65 81.3264 155.297 79.6087 156.891L80.0077 156.718C81.5768 155.736 82.9917 154.527 84.2065 153.13L83.8942 152.94Z" fill="#093269"/>
<path d="M95.2215 150.963C93.1262 151.184 91.0779 151.728 89.1489 152.575C88.6111 155.157 90.2247 161.241 95.447 161.241L95.2215 150.963Z" fill="#093269"/>
<path d="M95.4493 162.177C94.4437 162.172 93.4525 161.938 92.5507 161.494C91.6489 161.049 90.8602 160.406 90.2442 159.612C89.4728 158.589 88.9116 157.424 88.593 156.183C88.2743 154.943 88.2046 153.652 88.3878 152.384C88.4132 152.27 88.4617 152.161 88.5303 152.066C88.5989 151.971 88.6862 151.89 88.7868 151.83C90.8257 150.928 92.9905 150.344 95.2063 150.096C95.4504 150.075 95.6934 150.149 95.883 150.304C95.9745 150.385 96.048 150.483 96.0988 150.594C96.1496 150.704 96.1766 150.824 96.178 150.946L96.4035 161.345C96.4065 161.46 96.3865 161.574 96.3448 161.681C96.3031 161.788 96.2405 161.886 96.1606 161.969C96.063 162.051 95.9493 162.112 95.8268 162.148C95.7044 162.184 95.5758 162.193 95.4493 162.177ZM89.9493 153.13C89.8456 155.07 90.4292 156.984 91.5975 158.537C92.3286 159.488 93.3849 160.136 94.5644 160.357L94.3735 151.968C92.8567 152.173 91.3707 152.563 89.9493 153.13Z" fill="#093269"/>
<path d="M79.7129 163.547C79.2104 164.44 78.4954 165.196 77.6309 165.748C76.2349 166.152 74.7768 166.299 73.3281 166.181C73.3281 166.181 73.3281 165.99 73.3281 165.921C73.3902 165.431 73.565 164.961 73.8389 164.549C74.1128 164.137 74.4783 163.794 74.907 163.547H79.7129Z" fill="white"/>
<path d="M160.426 172.803H74.3693C74.2543 172.803 74.1439 172.757 74.0626 172.676C73.9813 172.594 73.9355 172.484 73.9355 172.369C73.9355 172.254 73.9813 172.144 74.0626 172.062C74.1439 171.981 74.2543 171.935 74.3693 171.935H160.426C160.539 171.939 160.647 171.987 160.728 172.067C160.808 172.147 160.855 172.255 160.86 172.369C160.86 172.484 160.814 172.594 160.733 172.676C160.651 172.757 160.541 172.803 160.426 172.803Z" fill="#093269"/>
<path d="M97.8076 161.571V151.033C97.8076 151.033 108.599 150.825 111.306 151.033L110.942 161.571H97.8076Z" fill="#093269"/>
<path d="M110.942 162.454H97.7738C97.5437 162.454 97.323 162.363 97.1603 162.201C96.9976 162.038 96.9062 161.818 96.9062 161.588V151.05C96.9105 150.824 97.0009 150.609 97.159 150.448C97.317 150.287 97.5307 150.192 97.7564 150.183C98.1901 150.183 108.635 149.975 111.359 150.183C111.578 150.201 111.782 150.303 111.928 150.468C112.073 150.633 112.149 150.848 112.14 151.067L111.81 161.64C111.797 161.86 111.699 162.068 111.538 162.219C111.377 162.371 111.164 162.455 110.942 162.454ZM98.6413 160.721H110.11L110.387 151.83C107.507 151.691 100.984 151.83 98.6413 151.83V160.721Z" fill="#093269"/>
<path d="M114.014 161.571V150.946C114.014 150.946 123.053 150.686 125.152 151.362C127.252 152.038 139.484 161.605 139.275 161.571C139.067 161.536 114.014 161.571 114.014 161.571Z" fill="#093269"/>
<path d="M139.274 162.455H114.012C113.783 162.45 113.565 162.358 113.404 162.196C113.242 162.034 113.149 161.817 113.145 161.588V150.964C113.144 150.737 113.233 150.519 113.392 150.357C113.551 150.195 113.768 150.101 113.995 150.097C114.932 150.097 123.242 149.854 125.411 150.548C128.288 152.085 131.003 153.909 133.514 155.99C140.28 161.068 140.263 161.189 140.124 161.779C140.078 161.97 139.969 162.14 139.815 162.262C139.661 162.385 139.471 162.452 139.274 162.455ZM114.88 151.813V160.721H136.827C133.035 157.633 129.047 154.79 124.891 152.211C121.572 151.776 118.222 151.643 114.88 151.813Z" fill="#093269"/>
<path d="M162.559 167.256H156.538C156.865 168.037 157.414 168.706 158.117 169.18C159.297 169.96 163.01 169.457 163.01 169.457L162.559 167.256Z" fill="white"/>
<path d="M145.643 141.829H126.645C126.415 141.829 126.194 141.738 126.031 141.575C125.869 141.413 125.777 141.192 125.777 140.963V129.281C125.777 129.051 125.869 128.83 126.031 128.668C126.194 128.505 126.415 128.414 126.645 128.414H145.643C145.873 128.414 146.094 128.505 146.257 128.668C146.419 128.83 146.511 129.051 146.511 129.281V140.963C146.506 141.191 146.413 141.409 146.252 141.57C146.09 141.732 145.872 141.825 145.643 141.829ZM127.53 140.096H144.776V130.147H127.53V140.096Z" fill="#ACCCF8"/>
</svg>
